  0
SECTION
  2
BLOCKS
  0
ENDSEC
  0
SECTION
  2
ENTITIES
  0
LINE
  8
0
 10
-90.3979
 20
-15
 11
-85.3979
 21
-15
  0
LINE
  8
0
 10
-85.3979
 20
-15
 11
-85.3979
 21
-19.75
  0
LINE
  8
0
 10
-85.3979
 20
-19.75
 11
-75.3979
 21
-19.75
  0
LINE
  8
0
 10
-75.3979
 20
-19.75
 11
-75.3979
 21
-15
  0
LINE
  8
0
 10
-75.3979
 20
-15
 11
-24.8979
 21
-15
  0
LINE
  8
0
 10
-24.8979
 20
-15
 11
-24.8979
 21
-19.75
  0
LINE
  8
0
 10
-24.8979
 20
-19.75
 11
-14.8979
 21
-19.75
  0
LINE
  8
0
 10
-14.8979
 20
-19.75
 11
-14.8979
 21
-15
  0
LINE
  8
0
 10
-14.8979
 20
-15
 11
-9.89795
 21
-15
  0
LINE
  8
0
 10
-9.89795
 20
-15
 11
-9.89795
 21
48.5
  0
LINE
  8
0
 10
-9.89795
 20
48.5
 11
-14.8979
 21
48.5
  0
LINE
  8
0
 10
-14.8979
 20
48.5
 11
-14.8979
 21
53.25
  0
LINE
  8
0
 10
-14.8979
 20
53.25
 11
-24.8979
 21
53.25
  0
LINE
  8
0
 10
-24.8979
 20
53.25
 11
-24.8979
 21
48.5
  0
LINE
  8
0
 10
-24.8979
 20
48.5
 11
-75.3979
 21
48.5
  0
LINE
  8
0
 10
-75.3979
 20
48.5
 11
-75.3979
 21
53.25
  0
LINE
  8
0
 10
-75.3979
 20
53.25
 11
-85.3979
 21
53.25
  0
LINE
  8
0
 10
-85.3979
 20
53.25
 11
-85.3979
 21
48.5
  0
LINE
  8
0
 10
-85.3979
 20
48.5
 11
-90.3979
 21
48.5
  0
LINE
  8
0
 10
-90.3979
 20
48.5
 11
-90.3979
 21
-15
  0
LINE
  8
0
 10
-77.3229
 20
7.84999
 11
-77.3141
 21
7.99098
  0
LINE
  8
0
 10
-77.3141
 20
7.99098
 11
-77.2876
 21
8.12976
  0
LINE
  8
0
 10
-77.2876
 20
8.12976
 11
-77.2439
 21
8.26413
  0
LINE
  8
0
 10
-77.2439
 20
8.26413
 11
-77.1838
 21
8.39195
  0
LINE
  8
0
 10
-77.1838
 20
8.39195
 11
-77.1081
 21
8.51125
  0
LINE
  8
0
 10
-77.1081
 20
8.51125
 11
-77.018
 21
8.6201
  0
LINE
  8
0
 10
-77.018
 20
8.6201
 11
-76.915
 21
8.71681
  0
LINE
  8
0
 10
-76.915
 20
8.71681
 11
-76.8007
 21
8.79985
  0
LINE
  8
0
 10
-76.8007
 20
8.79985
 11
-76.6769
 21
8.86792
  0
LINE
  8
0
 10
-76.6769
 20
8.86792
 11
-76.5456
 21
8.91992
  0
LINE
  8
0
 10
-76.5456
 20
8.91992
 11
-76.4087
 21
8.95506
  0
LINE
  8
0
 10
-76.4087
 20
8.95506
 11
-76.2686
 21
8.97276
  0
LINE
  8
0
 10
-76.2686
 20
8.97276
 11
-76.1273
 21
8.97276
  0
LINE
  8
0
 10
-76.1273
 20
8.97276
 11
-75.9871
 21
8.95506
  0
LINE
  8
0
 10
-75.9871
 20
8.95506
 11
-75.8503
 21
8.91992
  0
LINE
  8
0
 10
-75.8503
 20
8.91992
 11
-75.719
 21
8.86792
  0
LINE
  8
0
 10
-75.719
 20
8.86792
 11
-75.5951
 21
8.79985
  0
LINE
  8
0
 10
-75.5951
 20
8.79985
 11
-75.4809
 21
8.71681
  0
LINE
  8
0
 10
-75.4809
 20
8.71681
 11
-75.3779
 21
8.6201
  0
LINE
  8
0
 10
-75.3779
 20
8.6201
 11
-75.2878
 21
8.51125
  0
LINE
  8
0
 10
-75.2878
 20
8.51125
 11
-75.2121
 21
8.39195
  0
LINE
  8
0
 10
-75.2121
 20
8.39195
 11
-75.152
 21
8.26413
  0
LINE
  8
0
 10
-75.152
 20
8.26413
 11
-75.1083
 21
8.12976
  0
LINE
  8
0
 10
-75.1083
 20
8.12976
 11
-75.0818
 21
7.99098
  0
LINE
  8
0
 10
-75.0818
 20
7.99098
 11
-75.0729
 21
7.84999
  0
LINE
  8
0
 10
-75.0729
 20
7.84999
 11
-75.0818
 21
7.70898
  0
LINE
  8
0
 10
-75.0818
 20
7.70898
 11
-75.1083
 21
7.57021
  0
LINE
  8
0
 10
-75.1083
 20
7.57021
 11
-75.152
 21
7.43585
  0
LINE
  8
0
 10
-75.152
 20
7.43585
 11
-75.2121
 21
7.30801
  0
LINE
  8
0
 10
-75.2121
 20
7.30801
 11
-75.2878
 21
7.18872
  0
LINE
  8
0
 10
-75.2878
 20
7.18872
 11
-75.3779
 21
7.07986
  0
LINE
  8
0
 10
-75.3779
 20
7.07986
 11
-75.4809
 21
6.98315
  0
LINE
  8
0
 10
-75.4809
 20
6.98315
 11
-75.5951
 21
6.90012
  0
LINE
  8
0
 10
-75.5951
 20
6.90012
 11
-75.719
 21
6.83206
  0
LINE
  8
0
 10
-75.719
 20
6.83206
 11
-75.8503
 21
6.78004
  0
LINE
  8
0
 10
-75.8503
 20
6.78004
 11
-75.9871
 21
6.74492
  0
LINE
  8
0
 10
-75.9871
 20
6.74492
 11
-76.1273
 21
6.7272
  0
LINE
  8
0
 10
-76.1273
 20
6.7272
 11
-76.2686
 21
6.7272
  0
LINE
  8
0
 10
-76.2686
 20
6.7272
 11
-76.4087
 21
6.74492
  0
LINE
  8
0
 10
-76.4087
 20
6.74492
 11
-76.5456
 21
6.78004
  0
LINE
  8
0
 10
-76.5456
 20
6.78004
 11
-76.6769
 21
6.83206
  0
LINE
  8
0
 10
-76.6769
 20
6.83206
 11
-76.8007
 21
6.90012
  0
LINE
  8
0
 10
-76.8007
 20
6.90012
 11
-76.915
 21
6.98315
  0
LINE
  8
0
 10
-76.915
 20
6.98315
 11
-77.018
 21
7.07986
  0
LINE
  8
0
 10
-77.018
 20
7.07986
 11
-77.1081
 21
7.18872
  0
LINE
  8
0
 10
-77.1081
 20
7.18872
 11
-77.1838
 21
7.30801
  0
LINE
  8
0
 10
-77.1838
 20
7.30801
 11
-77.2439
 21
7.43585
  0
LINE
  8
0
 10
-77.2439
 20
7.43585
 11
-77.2876
 21
7.57021
  0
LINE
  8
0
 10
-77.2876
 20
7.57021
 11
-77.3141
 21
7.70898
  0
LINE
  8
0
 10
-77.3141
 20
7.70898
 11
-77.3229
 21
7.84999
  0
LINE
  8
0
 10
-77.3229
 20
35.75
 11
-77.3141
 21
35.891
  0
LINE
  8
0
 10
-77.3141
 20
35.891
 11
-77.2876
 21
36.0298
  0
LINE
  8
0
 10
-77.2876
 20
36.0298
 11
-77.2439
 21
36.1641
  0
LINE
  8
0
 10
-77.2439
 20
36.1641
 11
-77.1838
 21
36.292
  0
LINE
  8
0
 10
-77.1838
 20
36.292
 11
-77.1081
 21
36.4112
  0
LINE
  8
0
 10
-77.1081
 20
36.4112
 11
-77.018
 21
36.5201
  0
LINE
  8
0
 10
-77.018
 20
36.5201
 11
-76.915
 21
36.6168
  0
LINE
  8
0
 10
-76.915
 20
36.6168
 11
-76.8007
 21
36.6999
  0
LINE
  8
0
 10
-76.8007
 20
36.6999
 11
-76.6769
 21
36.7679
  0
LINE
  8
0
 10
-76.6769
 20
36.7679
 11
-76.5456
 21
36.8199
  0
LINE
  8
0
 10
-76.5456
 20
36.8199
 11
-76.4087
 21
36.8551
  0
LINE
  8
0
 10
-76.4087
 20
36.8551
 11
-76.2686
 21
36.8728
  0
LINE
  8
0
 10
-76.2686
 20
36.8728
 11
-76.1273
 21
36.8728
  0
LINE
  8
0
 10
-76.1273
 20
36.8728
 11
-75.9871
 21
36.8551
  0
LINE
  8
0
 10
-75.9871
 20
36.8551
 11
-75.8503
 21
36.8199
  0
LINE
  8
0
 10
-75.8503
 20
36.8199
 11
-75.719
 21
36.7679
  0
LINE
  8
0
 10
-75.719
 20
36.7679
 11
-75.5951
 21
36.6999
  0
LINE
  8
0
 10
-75.5951
 20
36.6999
 11
-75.4809
 21
36.6168
  0
LINE
  8
0
 10
-75.4809
 20
36.6168
 11
-75.3779
 21
36.5201
  0
LINE
  8
0
 10
-75.3779
 20
36.5201
 11
-75.2878
 21
36.4112
  0
LINE
  8
0
 10
-75.2878
 20
36.4112
 11
-75.2121
 21
36.292
  0
LINE
  8
0
 10
-75.2121
 20
36.292
 11
-75.152
 21
36.1641
  0
LINE
  8
0
 10
-75.152
 20
36.1641
 11
-75.1083
 21
36.0298
  0
LINE
  8
0
 10
-75.1083
 20
36.0298
 11
-75.0818
 21
35.891
  0
LINE
  8
0
 10
-75.0818
 20
35.891
 11
-75.0729
 21
35.75
  0
LINE
  8
0
 10
-75.0729
 20
35.75
 11
-75.0818
 21
35.609
  0
LINE
  8
0
 10
-75.0818
 20
35.609
 11
-75.1083
 21
35.4702
  0
LINE
  8
0
 10
-75.1083
 20
35.4702
 11
-75.152
 21
35.3358
  0
LINE
  8
0
 10
-75.152
 20
35.3358
 11
-75.2121
 21
35.208
  0
LINE
  8
0
 10
-75.2121
 20
35.208
 11
-75.2878
 21
35.0887
  0
LINE
  8
0
 10
-75.2878
 20
35.0887
 11
-75.3779
 21
34.9799
  0
LINE
  8
0
 10
-75.3779
 20
34.9799
 11
-75.4809
 21
34.8832
  0
LINE
  8
0
 10
-75.4809
 20
34.8832
 11
-75.5951
 21
34.8001
  0
LINE
  8
0
 10
-75.5951
 20
34.8001
 11
-75.719
 21
34.7321
  0
LINE
  8
0
 10
-75.719
 20
34.7321
 11
-75.8503
 21
34.6801
  0
LINE
  8
0
 10
-75.8503
 20
34.6801
 11
-75.9871
 21
34.6449
  0
LINE
  8
0
 10
-75.9871
 20
34.6449
 11
-76.1273
 21
34.6272
  0
LINE
  8
0
 10
-76.1273
 20
34.6272
 11
-76.2686
 21
34.6272
  0
LINE
  8
0
 10
-76.2686
 20
34.6272
 11
-76.4087
 21
34.6449
  0
LINE
  8
0
 10
-76.4087
 20
34.6449
 11
-76.5456
 21
34.6801
  0
LINE
  8
0
 10
-76.5456
 20
34.6801
 11
-76.6769
 21
34.7321
  0
LINE
  8
0
 10
-76.6769
 20
34.7321
 11
-76.8007
 21
34.8001
  0
LINE
  8
0
 10
-76.8007
 20
34.8001
 11
-76.915
 21
34.8832
  0
LINE
  8
0
 10
-76.915
 20
34.8832
 11
-77.018
 21
34.9799
  0
LINE
  8
0
 10
-77.018
 20
34.9799
 11
-77.1081
 21
35.0887
  0
LINE
  8
0
 10
-77.1081
 20
35.0887
 11
-77.1838
 21
35.208
  0
LINE
  8
0
 10
-77.1838
 20
35.208
 11
-77.2439
 21
35.3358
  0
LINE
  8
0
 10
-77.2439
 20
35.3358
 11
-77.2876
 21
35.4702
  0
LINE
  8
0
 10
-77.2876
 20
35.4702
 11
-77.3141
 21
35.609
  0
LINE
  8
0
 10
-77.3141
 20
35.609
 11
-77.3229
 21
35.75
  0
LINE
  8
0
 10
-26.523
 20
-7.35001
 11
-26.5141
 21
-7.20901
  0
LINE
  8
0
 10
-26.5141
 20
-7.20901
 11
-26.4876
 21
-7.07024
  0
LINE
  8
0
 10
-26.4876
 20
-7.07024
 11
-26.444
 21
-6.93587
  0
LINE
  8
0
 10
-26.444
 20
-6.93587
 11
-26.3838
 21
-6.80804
  0
LINE
  8
0
 10
-26.3838
 20
-6.80804
 11
-26.3081
 21
-6.68875
  0
LINE
  8
0
 10
-26.3081
 20
-6.68875
 11
-26.218
 21
-6.5799
  0
LINE
  8
0
 10
-26.218
 20
-6.5799
 11
-26.1151
 21
-6.48318
  0
LINE
  8
0
 10
-26.1151
 20
-6.48318
 11
-26.0008
 21
-6.40015
  0
LINE
  8
0
 10
-26.0008
 20
-6.40015
 11
-25.877
 21
-6.33208
  0
LINE
  8
0
 10
-25.877
 20
-6.33208
 11
-25.7456
 21
-6.28008
  0
LINE
  8
0
 10
-25.7456
 20
-6.28008
 11
-25.6088
 21
-6.24493
  0
LINE
  8
0
 10
-25.6088
 20
-6.24493
 11
-25.4686
 21
-6.22723
  0
LINE
  8
0
 10
-25.4686
 20
-6.22723
 11
-25.3273
 21
-6.22723
  0
LINE
  8
0
 10
-25.3273
 20
-6.22723
 11
-25.1871
 21
-6.24493
  0
LINE
  8
0
 10
-25.1871
 20
-6.24493
 11
-25.0503
 21
-6.28008
  0
LINE
  8
0
 10
-25.0503
 20
-6.28008
 11
-24.919
 21
-6.33208
  0
LINE
  8
0
 10
-24.919
 20
-6.33208
 11
-24.7951
 21
-6.40015
  0
LINE
  8
0
 10
-24.7951
 20
-6.40015
 11
-24.6809
 21
-6.48318
  0
LINE
  8
0
 10
-24.6809
 20
-6.48318
 11
-24.5779
 21
-6.5799
  0
LINE
  8
0
 10
-24.5779
 20
-6.5799
 11
-24.4878
 21
-6.68875
  0
LINE
  8
0
 10
-24.4878
 20
-6.68875
 11
-24.4121
 21
-6.80804
  0
LINE
  8
0
 10
-24.4121
 20
-6.80804
 11
-24.352
 21
-6.93587
  0
LINE
  8
0
 10
-24.352
 20
-6.93587
 11
-24.3083
 21
-7.07024
  0
LINE
  8
0
 10
-24.3083
 20
-7.07024
 11
-24.2818
 21
-7.20901
  0
LINE
  8
0
 10
-24.2818
 20
-7.20901
 11
-24.273
 21
-7.35001
  0
LINE
  8
0
 10
-24.273
 20
-7.35001
 11
-24.2818
 21
-7.491
  0
LINE
  8
0
 10
-24.2818
 20
-7.491
 11
-24.3083
 21
-7.62978
  0
LINE
  8
0
 10
-24.3083
 20
-7.62978
 11
-24.352
 21
-7.76414
  0
LINE
  8
0
 10
-24.352
 20
-7.76414
 11
-24.4121
 21
-7.89197
  0
LINE
  8
0
 10
-24.4121
 20
-7.89197
 11
-24.4878
 21
-8.01126
  0
LINE
  8
0
 10
-24.4878
 20
-8.01126
 11
-24.5779
 21
-8.12012
  0
LINE
  8
0
 10
-24.5779
 20
-8.12012
 11
-24.6809
 21
-8.21683
  0
LINE
  8
0
 10
-24.6809
 20
-8.21683
 11
-24.7951
 21
-8.29987
  0
LINE
  8
0
 10
-24.7951
 20
-8.29987
 11
-24.919
 21
-8.36794
  0
LINE
  8
0
 10
-24.919
 20
-8.36794
 11
-25.0503
 21
-8.41994
  0
LINE
  8
0
 10
-25.0503
 20
-8.41994
 11
-25.1871
 21
-8.45508
  0
LINE
  8
0
 10
-25.1871
 20
-8.45508
 11
-25.3273
 21
-8.47278
  0
LINE
  8
0
 10
-25.3273
 20
-8.47278
 11
-25.4686
 21
-8.47278
  0
LINE
  8
0
 10
-25.4686
 20
-8.47278
 11
-25.6088
 21
-8.45508
  0
LINE
  8
0
 10
-25.6088
 20
-8.45508
 11
-25.7456
 21
-8.41994
  0
LINE
  8
0
 10
-25.7456
 20
-8.41994
 11
-25.877
 21
-8.36794
  0
LINE
  8
0
 10
-25.877
 20
-8.36794
 11
-26.0008
 21
-8.29987
  0
LINE
  8
0
 10
-26.0008
 20
-8.29987
 11
-26.1151
 21
-8.21683
  0
LINE
  8
0
 10
-26.1151
 20
-8.21683
 11
-26.218
 21
-8.12012
  0
LINE
  8
0
 10
-26.218
 20
-8.12012
 11
-26.3081
 21
-8.01126
  0
LINE
  8
0
 10
-26.3081
 20
-8.01126
 11
-26.3838
 21
-7.89197
  0
LINE
  8
0
 10
-26.3838
 20
-7.89197
 11
-26.444
 21
-7.76414
  0
LINE
  8
0
 10
-26.444
 20
-7.76414
 11
-26.4876
 21
-7.62978
  0
LINE
  8
0
 10
-26.4876
 20
-7.62978
 11
-26.5141
 21
-7.491
  0
LINE
  8
0
 10
-26.5141
 20
-7.491
 11
-26.523
 21
-7.35001
  0
LINE
  8
0
 10
-25.223
 20
40.85
 11
-25.2141
 21
40.991
  0
LINE
  8
0
 10
-25.2141
 20
40.991
 11
-25.1876
 21
41.1298
  0
LINE
  8
0
 10
-25.1876
 20
41.1298
 11
-25.1439
 21
41.2641
  0
LINE
  8
0
 10
-25.1439
 20
41.2641
 11
-25.0838
 21
41.392
  0
LINE
  8
0
 10
-25.0838
 20
41.392
 11
-25.0081
 21
41.5112
  0
LINE
  8
0
 10
-25.0081
 20
41.5112
 11
-24.918
 21
41.6201
  0
LINE
  8
0
 10
-24.918
 20
41.6201
 11
-24.8151
 21
41.7168
  0
LINE
  8
0
 10
-24.8151
 20
41.7168
 11
-24.7008
 21
41.7999
  0
LINE
  8
0
 10
-24.7008
 20
41.7999
 11
-24.577
 21
41.8679
  0
LINE
  8
0
 10
-24.577
 20
41.8679
 11
-24.4456
 21
41.9199
  0
LINE
  8
0
 10
-24.4456
 20
41.9199
 11
-24.3088
 21
41.9551
  0
LINE
  8
0
 10
-24.3088
 20
41.9551
 11
-24.1686
 21
41.9728
  0
LINE
  8
0
 10
-24.1686
 20
41.9728
 11
-24.0273
 21
41.9728
  0
LINE
  8
0
 10
-24.0273
 20
41.9728
 11
-23.8872
 21
41.9551
  0
LINE
  8
0
 10
-23.8872
 20
41.9551
 11
-23.7503
 21
41.9199
  0
LINE
  8
0
 10
-23.7503
 20
41.9199
 11
-23.619
 21
41.8679
  0
LINE
  8
0
 10
-23.619
 20
41.8679
 11
-23.4951
 21
41.7999
  0
LINE
  8
0
 10
-23.4951
 20
41.7999
 11
-23.3809
 21
41.7168
  0
LINE
  8
0
 10
-23.3809
 20
41.7168
 11
-23.2779
 21
41.6201
  0
LINE
  8
0
 10
-23.2779
 20
41.6201
 11
-23.1878
 21
41.5112
  0
LINE
  8
0
 10
-23.1878
 20
41.5112
 11
-23.1121
 21
41.392
  0
LINE
  8
0
 10
-23.1121
 20
41.392
 11
-23.052
 21
41.2641
  0
LINE
  8
0
 10
-23.052
 20
41.2641
 11
-23.0083
 21
41.1298
  0
LINE
  8
0
 10
-23.0083
 20
41.1298
 11
-22.9818
 21
40.991
  0
LINE
  8
0
 10
-22.9818
 20
40.991
 11
-22.973
 21
40.85
  0
LINE
  8
0
 10
-22.973
 20
40.85
 11
-22.9818
 21
40.709
  0
LINE
  8
0
 10
-22.9818
 20
40.709
 11
-23.0083
 21
40.5702
  0
LINE
  8
0
 10
-23.0083
 20
40.5702
 11
-23.052
 21
40.4359
  0
LINE
  8
0
 10
-23.052
 20
40.4359
 11
-23.1121
 21
40.308
  0
LINE
  8
0
 10
-23.1121
 20
40.308
 11
-23.1878
 21
40.1887
  0
LINE
  8
0
 10
-23.1878
 20
40.1887
 11
-23.2779
 21
40.0799
  0
LINE
  8
0
 10
-23.2779
 20
40.0799
 11
-23.3809
 21
39.9832
  0
LINE
  8
0
 10
-23.3809
 20
39.9832
 11
-23.4951
 21
39.9001
  0
LINE
  8
0
 10
-23.4951
 20
39.9001
 11
-23.619
 21
39.8321
  0
LINE
  8
0
 10
-23.619
 20
39.8321
 11
-23.7503
 21
39.78
  0
LINE
  8
0
 10
-23.7503
 20
39.78
 11
-23.8872
 21
39.7449
  0
LINE
  8
0
 10
-23.8872
 20
39.7449
 11
-24.0273
 21
39.7272
  0
LINE
  8
0
 10
-24.0273
 20
39.7272
 11
-24.1686
 21
39.7272
  0
LINE
  8
0
 10
-24.1686
 20
39.7272
 11
-24.3088
 21
39.7449
  0
LINE
  8
0
 10
-24.3088
 20
39.7449
 11
-24.4456
 21
39.78
  0
LINE
  8
0
 10
-24.4456
 20
39.78
 11
-24.577
 21
39.8321
  0
LINE
  8
0
 10
-24.577
 20
39.8321
 11
-24.7008
 21
39.9001
  0
LINE
  8
0
 10
-24.7008
 20
39.9001
 11
-24.8151
 21
39.9832
  0
LINE
  8
0
 10
-24.8151
 20
39.9832
 11
-24.918
 21
40.0799
  0
LINE
  8
0
 10
-24.918
 20
40.0799
 11
-25.0081
 21
40.1887
  0
LINE
  8
0
 10
-25.0081
 20
40.1887
 11
-25.0838
 21
40.308
  0
LINE
  8
0
 10
-25.0838
 20
40.308
 11
-25.1439
 21
40.4359
  0
LINE
  8
0
 10
-25.1439
 20
40.4359
 11
-25.1876
 21
40.5702
  0
LINE
  8
0
 10
-25.1876
 20
40.5702
 11
-25.2141
 21
40.709
  0
LINE
  8
0
 10
-25.2141
 20
40.709
 11
-25.223
 21
40.85
  0
LINE
  8
0
 10
-89.5297
 20
-90
 11
-83.7049
 21
-90
  0
LINE
  8
0
 10
-83.7049
 20
-90
 11
-83.7049
 21
-94.75
  0
LINE
  8
0
 10
-83.7049
 20
-94.75
 11
-73.7049
 21
-94.75
  0
LINE
  8
0
 10
-73.7049
 20
-94.75
 11
-73.7049
 21
-90
  0
LINE
  8
0
 10
-73.7049
 20
-90
 11
-15
 21
-90
  0
LINE
  8
0
 10
-15
 20
-90
 11
-15
 21
-94.75
  0
LINE
  8
0
 10
-15
 20
-94.75
 11
-5.00001
 21
-94.75
  0
LINE
  8
0
 10
-5.00001
 20
-94.75
 11
-5.00001
 21
-90
  0
LINE
  8
0
 10
-5.00001
 20
-90
 11
-1.14441e-05
 21
-90
  0
LINE
  8
0
 10
-1.14441e-05
 20
-90
 11
-1.14441e-05
 21
-26.5
  0
LINE
  8
0
 10
-1.14441e-05
 20
-26.5
 11
-5.00001
 21
-26.5
  0
LINE
  8
0
 10
-5.00001
 20
-26.5
 11
-5.00001
 21
-21.75
  0
LINE
  8
0
 10
-5.00001
 20
-21.75
 11
-15
 21
-21.75
  0
LINE
  8
0
 10
-15
 20
-21.75
 11
-15
 21
-26.5
  0
LINE
  8
0
 10
-15
 20
-26.5
 11
-73.7049
 21
-26.5
  0
LINE
  8
0
 10
-73.7049
 20
-26.5
 11
-73.7049
 21
-21.75
  0
LINE
  8
0
 10
-73.7049
 20
-21.75
 11
-83.7049
 21
-21.75
  0
LINE
  8
0
 10
-83.7049
 20
-21.75
 11
-83.7049
 21
-26.5
  0
LINE
  8
0
 10
-83.7049
 20
-26.5
 11
-89.5297
 21
-26.5
  0
LINE
  8
0
 10
-89.5297
 20
-26.5
 11
-89.5297
 21
-90
  0
LINE
  8
0
 10
-78.6547
 20
-70.75
 11
-78.6458
 21
-70.609
  0
LINE
  8
0
 10
-78.6458
 20
-70.609
 11
-78.6194
 21
-70.4702
  0
LINE
  8
0
 10
-78.6194
 20
-70.4702
 11
-78.5757
 21
-70.3359
  0
LINE
  8
0
 10
-78.5757
 20
-70.3359
 11
-78.5156
 21
-70.208
  0
LINE
  8
0
 10
-78.5156
 20
-70.208
 11
-78.4399
 21
-70.0887
  0
LINE
  8
0
 10
-78.4399
 20
-70.0887
 11
-78.3498
 21
-69.9799
  0
LINE
  8
0
 10
-78.3498
 20
-69.9799
 11
-78.2468
 21
-69.8832
  0
LINE
  8
0
 10
-78.2468
 20
-69.8832
 11
-78.1325
 21
-69.8001
  0
LINE
  8
0
 10
-78.1325
 20
-69.8001
 11
-78.0087
 21
-69.7321
  0
LINE
  8
0
 10
-78.0087
 20
-69.7321
 11
-77.8774
 21
-69.6801
  0
LINE
  8
0
 10
-77.8774
 20
-69.6801
 11
-77.7405
 21
-69.6449
  0
LINE
  8
0
 10
-77.7405
 20
-69.6449
 11
-77.6004
 21
-69.6272
  0
LINE
  8
0
 10
-77.6004
 20
-69.6272
 11
-77.4591
 21
-69.6272
  0
LINE
  8
0
 10
-77.4591
 20
-69.6272
 11
-77.3189
 21
-69.6449
  0
LINE
  8
0
 10
-77.3189
 20
-69.6449
 11
-77.1821
 21
-69.6801
  0
LINE
  8
0
 10
-77.1821
 20
-69.6801
 11
-77.0507
 21
-69.7321
  0
LINE
  8
0
 10
-77.0507
 20
-69.7321
 11
-76.9269
 21
-69.8001
  0
LINE
  8
0
 10
-76.9269
 20
-69.8001
 11
-76.8126
 21
-69.8832
  0
LINE
  8
0
 10
-76.8126
 20
-69.8832
 11
-76.7096
 21
-69.9799
  0
LINE
  8
0
 10
-76.7096
 20
-69.9799
 11
-76.6196
 21
-70.0887
  0
LINE
  8
0
 10
-76.6196
 20
-70.0887
 11
-76.5439
 21
-70.208
  0
LINE
  8
0
 10
-76.5439
 20
-70.208
 11
-76.4837
 21
-70.3359
  0
LINE
  8
0
 10
-76.4837
 20
-70.3359
 11
-76.4401
 21
-70.4702
  0
LINE
  8
0
 10
-76.4401
 20
-70.4702
 11
-76.4136
 21
-70.609
  0
LINE
  8
0
 10
-76.4136
 20
-70.609
 11
-76.4047
 21
-70.75
  0
LINE
  8
0
 10
-76.4047
 20
-70.75
 11
-76.4136
 21
-70.891
  0
LINE
  8
0
 10
-76.4136
 20
-70.891
 11
-76.4401
 21
-71.0298
  0
LINE
  8
0
 10
-76.4401
 20
-71.0298
 11
-76.4837
 21
-71.1642
  0
LINE
  8
0
 10
-76.4837
 20
-71.1642
 11
-76.5439
 21
-71.292
  0
LINE
  8
0
 10
-76.5439
 20
-71.292
 11
-76.6196
 21
-71.4113
  0
LINE
  8
0
 10
-76.6196
 20
-71.4113
 11
-76.7096
 21
-71.5201
  0
LINE
  8
0
 10
-76.7096
 20
-71.5201
 11
-76.8126
 21
-71.6168
  0
LINE
  8
0
 10
-76.8126
 20
-71.6168
 11
-76.9269
 21
-71.6999
  0
LINE
  8
0
 10
-76.9269
 20
-71.6999
 11
-77.0507
 21
-71.7679
  0
LINE
  8
0
 10
-77.0507
 20
-71.7679
 11
-77.1821
 21
-71.8199
  0
LINE
  8
0
 10
-77.1821
 20
-71.8199
 11
-77.3189
 21
-71.8551
  0
LINE
  8
0
 10
-77.3189
 20
-71.8551
 11
-77.4591
 21
-71.8728
  0
LINE
  8
0
 10
-77.4591
 20
-71.8728
 11
-77.6004
 21
-71.8728
  0
LINE
  8
0
 10
-77.6004
 20
-71.8728
 11
-77.7405
 21
-71.8551
  0
LINE
  8
0
 10
-77.7405
 20
-71.8551
 11
-77.8774
 21
-71.8199
  0
LINE
  8
0
 10
-77.8774
 20
-71.8199
 11
-78.0087
 21
-71.7679
  0
LINE
  8
0
 10
-78.0087
 20
-71.7679
 11
-78.1325
 21
-71.6999
  0
LINE
  8
0
 10
-78.1325
 20
-71.6999
 11
-78.2468
 21
-71.6168
  0
LINE
  8
0
 10
-78.2468
 20
-71.6168
 11
-78.3498
 21
-71.5201
  0
LINE
  8
0
 10
-78.3498
 20
-71.5201
 11
-78.4399
 21
-71.4113
  0
LINE
  8
0
 10
-78.4399
 20
-71.4113
 11
-78.5156
 21
-71.292
  0
LINE
  8
0
 10
-78.5156
 20
-71.292
 11
-78.5757
 21
-71.1642
  0
LINE
  8
0
 10
-78.5757
 20
-71.1642
 11
-78.6194
 21
-71.0298
  0
LINE
  8
0
 10
-78.6194
 20
-71.0298
 11
-78.6458
 21
-70.891
  0
LINE
  8
0
 10
-78.6458
 20
-70.891
 11
-78.6547
 21
-70.75
  0
LINE
  8
0
 10
-78.6547
 20
-45.75
 11
-78.6458
 21
-45.609
  0
LINE
  8
0
 10
-78.6458
 20
-45.609
 11
-78.6194
 21
-45.4702
  0
LINE
  8
0
 10
-78.6194
 20
-45.4702
 11
-78.5757
 21
-45.3359
  0
LINE
  8
0
 10
-78.5757
 20
-45.3359
 11
-78.5156
 21
-45.208
  0
LINE
  8
0
 10
-78.5156
 20
-45.208
 11
-78.4399
 21
-45.0887
  0
LINE
  8
0
 10
-78.4399
 20
-45.0887
 11
-78.3498
 21
-44.9799
  0
LINE
  8
0
 10
-78.3498
 20
-44.9799
 11
-78.2468
 21
-44.8832
  0
LINE
  8
0
 10
-78.2468
 20
-44.8832
 11
-78.1325
 21
-44.8001
  0
LINE
  8
0
 10
-78.1325
 20
-44.8001
 11
-78.0087
 21
-44.7321
  0
LINE
  8
0
 10
-78.0087
 20
-44.7321
 11
-77.8774
 21
-44.6801
  0
LINE
  8
0
 10
-77.8774
 20
-44.6801
 11
-77.7405
 21
-44.6449
  0
LINE
  8
0
 10
-77.7405
 20
-44.6449
 11
-77.6004
 21
-44.6272
  0
LINE
  8
0
 10
-77.6004
 20
-44.6272
 11
-77.4591
 21
-44.6272
  0
LINE
  8
0
 10
-77.4591
 20
-44.6272
 11
-77.3189
 21
-44.6449
  0
LINE
  8
0
 10
-77.3189
 20
-44.6449
 11
-77.1821
 21
-44.6801
  0
LINE
  8
0
 10
-77.1821
 20
-44.6801
 11
-77.0507
 21
-44.7321
  0
LINE
  8
0
 10
-77.0507
 20
-44.7321
 11
-76.9269
 21
-44.8001
  0
LINE
  8
0
 10
-76.9269
 20
-44.8001
 11
-76.8126
 21
-44.8832
  0
LINE
  8
0
 10
-76.8126
 20
-44.8832
 11
-76.7096
 21
-44.9799
  0
LINE
  8
0
 10
-76.7096
 20
-44.9799
 11
-76.6196
 21
-45.0887
  0
LINE
  8
0
 10
-76.6196
 20
-45.0887
 11
-76.5439
 21
-45.208
  0
LINE
  8
0
 10
-76.5439
 20
-45.208
 11
-76.4837
 21
-45.3359
  0
LINE
  8
0
 10
-76.4837
 20
-45.3359
 11
-76.4401
 21
-45.4702
  0
LINE
  8
0
 10
-76.4401
 20
-45.4702
 11
-76.4136
 21
-45.609
  0
LINE
  8
0
 10
-76.4136
 20
-45.609
 11
-76.4047
 21
-45.75
  0
LINE
  8
0
 10
-76.4047
 20
-45.75
 11
-76.4136
 21
-45.891
  0
LINE
  8
0
 10
-76.4136
 20
-45.891
 11
-76.4401
 21
-46.0298
  0
LINE
  8
0
 10
-76.4401
 20
-46.0298
 11
-76.4837
 21
-46.1642
  0
LINE
  8
0
 10
-76.4837
 20
-46.1642
 11
-76.5439
 21
-46.292
  0
LINE
  8
0
 10
-76.5439
 20
-46.292
 11
-76.6196
 21
-46.4113
  0
LINE
  8
0
 10
-76.6196
 20
-46.4113
 11
-76.7096
 21
-46.5201
  0
LINE
  8
0
 10
-76.7096
 20
-46.5201
 11
-76.8126
 21
-46.6168
  0
LINE
  8
0
 10
-76.8126
 20
-46.6168
 11
-76.9269
 21
-46.6999
  0
LINE
  8
0
 10
-76.9269
 20
-46.6999
 11
-77.0507
 21
-46.7679
  0
LINE
  8
0
 10
-77.0507
 20
-46.7679
 11
-77.1821
 21
-46.8199
  0
LINE
  8
0
 10
-77.1821
 20
-46.8199
 11
-77.3189
 21
-46.8551
  0
LINE
  8
0
 10
-77.3189
 20
-46.8551
 11
-77.4591
 21
-46.8728
  0
LINE
  8
0
 10
-77.4591
 20
-46.8728
 11
-77.6004
 21
-46.8728
  0
LINE
  8
0
 10
-77.6004
 20
-46.8728
 11
-77.7405
 21
-46.8551
  0
LINE
  8
0
 10
-77.7405
 20
-46.8551
 11
-77.8774
 21
-46.8199
  0
LINE
  8
0
 10
-77.8774
 20
-46.8199
 11
-78.0087
 21
-46.7679
  0
LINE
  8
0
 10
-78.0087
 20
-46.7679
 11
-78.1325
 21
-46.6999
  0
LINE
  8
0
 10
-78.1325
 20
-46.6999
 11
-78.2468
 21
-46.6168
  0
LINE
  8
0
 10
-78.2468
 20
-46.6168
 11
-78.3498
 21
-46.5201
  0
LINE
  8
0
 10
-78.3498
 20
-46.5201
 11
-78.4399
 21
-46.4113
  0
LINE
  8
0
 10
-78.4399
 20
-46.4113
 11
-78.5156
 21
-46.292
  0
LINE
  8
0
 10
-78.5156
 20
-46.292
 11
-78.5757
 21
-46.1642
  0
LINE
  8
0
 10
-78.5757
 20
-46.1642
 11
-78.6194
 21
-46.0298
  0
LINE
  8
0
 10
-78.6194
 20
-46.0298
 11
-78.6458
 21
-45.891
  0
LINE
  8
0
 10
-78.6458
 20
-45.891
 11
-78.6547
 21
-45.75
  0
LINE
  8
0
 10
-65
 20
-81.75
 11
-65
 21
-76.75
  0
LINE
  8
0
 10
-65
 20
-76.75
 11
-62.5
 21
-76.75
  0
LINE
  8
0
 10
-62.5
 20
-76.75
 11
-62.5
 21
-81.75
  0
LINE
  8
0
 10
-62.5
 20
-81.75
 11
-65
 21
-81.75
  0
LINE
  8
0
 10
-65
 20
-39.75
 11
-65
 21
-34.75
  0
LINE
  8
0
 10
-65
 20
-34.75
 11
-62.5
 21
-34.75
  0
LINE
  8
0
 10
-62.5
 20
-34.75
 11
-62.5
 21
-39.75
  0
LINE
  8
0
 10
-62.5
 20
-39.75
 11
-65
 21
-39.75
  0
LINE
  8
0
 10
-20
 20
-81.75
 11
-20
 21
-76.75
  0
LINE
  8
0
 10
-20
 20
-76.75
 11
-17.5
 21
-76.75
  0
LINE
  8
0
 10
-17.5
 20
-76.75
 11
-17.5
 21
-81.75
  0
LINE
  8
0
 10
-17.5
 20
-81.75
 11
-20
 21
-81.75
  0
LINE
  8
0
 10
-20
 20
-39.75
 11
-20
 21
-34.75
  0
LINE
  8
0
 10
-20
 20
-34.75
 11
-17.5
 21
-34.75
  0
LINE
  8
0
 10
-17.5
 20
-34.75
 11
-17.5
 21
-39.75
  0
LINE
  8
0
 10
-17.5
 20
-39.75
 11
-20
 21
-39.75
  0
LINE
  8
0
 10
-60
 20
83.25
 11
-59.7634
 21
79.49
  0
LINE
  8
0
 10
-59.7634
 20
79.49
 11
-59.0575
 21
75.7893
  0
LINE
  8
0
 10
-59.0575
 20
75.7893
 11
-57.8933
 21
72.2063
  0
LINE
  8
0
 10
-57.8933
 20
72.2063
 11
-56.2892
 21
68.7974
  0
LINE
  8
0
 10
-56.2892
 20
68.7974
 11
-54.2705
 21
65.6164
  0
LINE
  8
0
 10
-54.2705
 20
65.6164
 11
-51.8691
 21
62.7136
  0
LINE
  8
0
 10
-51.8691
 20
62.7136
 11
-49.1227
 21
60.1346
  0
LINE
  8
0
 10
-49.1227
 20
60.1346
 11
-46.0748
 21
57.9202
  0
LINE
  8
0
 10
-46.0748
 20
57.9202
 11
-42.7734
 21
56.1052
  0
LINE
  8
0
 10
-42.7734
 20
56.1052
 11
-39.2705
 21
54.7183
  0
LINE
  8
0
 10
-39.2705
 20
54.7183
 11
-35.6214
 21
53.7814
  0
LINE
  8
0
 10
-35.6214
 20
53.7814
 11
-31.8837
 21
53.3092
  0
LINE
  8
0
 10
-31.8837
 20
53.3092
 11
-28.1163
 21
53.3092
  0
LINE
  8
0
 10
-28.1163
 20
53.3092
 11
-24.3786
 21
53.7814
  0
LINE
  8
0
 10
-24.3786
 20
53.7814
 11
-20.7295
 21
54.7183
  0
LINE
  8
0
 10
-20.7295
 20
54.7183
 11
-17.2266
 21
56.1052
  0
LINE
  8
0
 10
-17.2266
 20
56.1052
 11
-13.9252
 21
57.9202
  0
LINE
  8
0
 10
-13.9252
 20
57.9202
 11
-10.8773
 21
60.1346
  0
LINE
  8
0
 10
-10.8773
 20
60.1346
 11
-8.13094
 21
62.7136
  0
LINE
  8
0
 10
-8.13094
 20
62.7136
 11
-5.72949
 21
65.6164
  0
LINE
  8
0
 10
-5.72949
 20
65.6164
 11
-3.7108
 21
68.7974
  0
LINE
  8
0
 10
-3.7108
 20
68.7974
 11
-2.10671
 21
72.2063
  0
LINE
  8
0
 10
-2.10671
 20
72.2063
 11
-0.942506
 21
75.7893
  0
LINE
  8
0
 10
-0.942506
 20
75.7893
 11
-0.23656
 21
79.49
  0
LINE
  8
0
 10
-0.23656
 20
79.49
 11
0
 21
83.25
  0
LINE
  8
0
 10
0
 20
83.25
 11
-0.23656
 21
87.01
  0
LINE
  8
0
 10
-0.23656
 20
87.01
 11
-0.942506
 21
90.7107
  0
LINE
  8
0
 10
-0.942506
 20
90.7107
 11
-2.10671
 21
94.2937
  0
LINE
  8
0
 10
-2.10671
 20
94.2937
 11
-3.7108
 21
97.7026
  0
LINE
  8
0
 10
-3.7108
 20
97.7026
 11
-5.72949
 21
100.884
  0
LINE
  8
0
 10
-5.72949
 20
100.884
 11
-8.13094
 21
103.786
  0
LINE
  8
0
 10
-8.13094
 20
103.786
 11
-10.8773
 21
106.365
  0
LINE
  8
0
 10
-10.8773
 20
106.365
 11
-13.9252
 21
108.58
  0
LINE
  8
0
 10
-13.9252
 20
108.58
 11
-17.2266
 21
110.395
  0
LINE
  8
0
 10
-17.2266
 20
110.395
 11
-20.7295
 21
111.782
  0
LINE
  8
0
 10
-20.7295
 20
111.782
 11
-24.3786
 21
112.719
  0
LINE
  8
0
 10
-24.3786
 20
112.719
 11
-28.1163
 21
113.191
  0
LINE
  8
0
 10
-28.1163
 20
113.191
 11
-31.8837
 21
113.191
  0
LINE
  8
0
 10
-31.8837
 20
113.191
 11
-35.6214
 21
112.719
  0
LINE
  8
0
 10
-35.6214
 20
112.719
 11
-39.2705
 21
111.782
  0
LINE
  8
0
 10
-39.2705
 20
111.782
 11
-42.7734
 21
110.395
  0
LINE
  8
0
 10
-42.7734
 20
110.395
 11
-46.0748
 21
108.58
  0
LINE
  8
0
 10
-46.0748
 20
108.58
 11
-49.1227
 21
106.365
  0
LINE
  8
0
 10
-49.1227
 20
106.365
 11
-51.8691
 21
103.786
  0
LINE
  8
0
 10
-51.8691
 20
103.786
 11
-54.2705
 21
100.884
  0
LINE
  8
0
 10
-54.2705
 20
100.884
 11
-56.2892
 21
97.7026
  0
LINE
  8
0
 10
-56.2892
 20
97.7026
 11
-57.8933
 21
94.2937
  0
LINE
  8
0
 10
-57.8933
 20
94.2937
 11
-59.0575
 21
90.7107
  0
LINE
  8
0
 10
-59.0575
 20
90.7107
 11
-59.7634
 21
87.01
  0
LINE
  8
0
 10
-59.7634
 20
87.01
 11
-60
 21
83.25
  0
LINE
  8
0
 10
-33.1843
 20
83.4003
 11
-33.1781
 21
83.5
  0
LINE
  8
0
 10
-33.1781
 20
83.5
 11
-33.0655
 21
83.5992
  0
LINE
  8
0
 10
-33.0655
 20
83.5992
 11
-33.0632
 21
83.637
  0
LINE
  8
0
 10
-33.0632
 20
83.637
 11
-32.9905
 21
84.0178
  0
LINE
  8
0
 10
-32.9905
 20
84.0178
 11
-32.9788
 21
84.0538
  0
LINE
  8
0
 10
-32.9788
 20
84.0538
 11
-33.0469
 21
84.1874
  0
LINE
  8
0
 10
-33.0469
 20
84.1874
 11
-33.016
 21
84.2825
  0
LINE
  8
0
 10
-33.016
 20
84.2825
 11
-32.8824
 21
84.3506
  0
LINE
  8
0
 10
-32.8824
 20
84.3506
 11
-32.8707
 21
84.3866
  0
LINE
  8
0
 10
-32.8707
 20
84.3866
 11
-32.7056
 21
84.7374
  0
LINE
  8
0
 10
-32.7056
 20
84.7374
 11
-32.6853
 21
84.7693
  0
LINE
  8
0
 10
-32.6853
 20
84.7693
 11
-32.7181
 21
84.9157
  0
LINE
  8
0
 10
-32.7181
 20
84.9157
 11
-32.6645
 21
85.0001
  0
LINE
  8
0
 10
-32.6645
 20
85.0001
 11
-32.5181
 21
85.0329
  0
LINE
  8
0
 10
-32.5181
 20
85.0329
 11
-32.4978
 21
85.0648
  0
LINE
  8
0
 10
-32.4978
 20
85.0648
 11
-32.2507
 21
85.3635
  0
LINE
  8
0
 10
-32.2507
 20
85.3635
 11
-32.2231
 21
85.3894
  0
LINE
  8
0
 10
-32.2231
 20
85.3894
 11
-32.2184
 21
85.5394
  0
LINE
  8
0
 10
-32.2184
 20
85.5394
 11
-32.1455
 21
85.6078
  0
LINE
  8
0
 10
-32.1455
 20
85.6078
 11
-31.9956
 21
85.6031
  0
LINE
  8
0
 10
-31.9956
 20
85.6031
 11
-31.968
 21
85.629
  0
LINE
  8
0
 10
-31.968
 20
85.629
 11
-31.6544
 21
85.8569
  0
LINE
  8
0
 10
-31.6544
 20
85.8569
 11
-31.6212
 21
85.8751
  0
LINE
  8
0
 10
-31.6212
 20
85.8751
 11
-31.5794
 21
86.0191
  0
LINE
  8
0
 10
-31.5794
 20
86.0191
 11
-31.4918
 21
86.0673
  0
LINE
  8
0
 10
-31.4918
 20
86.0673
 11
-31.3477
 21
86.0254
  0
LINE
  8
0
 10
-31.3477
 20
86.0254
 11
-31.3146
 21
86.0437
  0
LINE
  8
0
 10
-31.3146
 20
86.0437
 11
-30.9541
 21
86.1864
  0
LINE
  8
0
 10
-30.9541
 20
86.1864
 11
-30.9175
 21
86.1958
  0
LINE
  8
0
 10
-30.9175
 20
86.1958
 11
-30.8411
 21
86.3249
  0
LINE
  8
0
 10
-30.8411
 20
86.3249
 11
-30.7443
 21
86.3498
  0
LINE
  8
0
 10
-30.7443
 20
86.3498
 11
-30.6151
 21
86.2734
  0
LINE
  8
0
 10
-30.6151
 20
86.2734
 11
-30.5785
 21
86.2828
  0
LINE
  8
0
 10
-30.5785
 20
86.2828
 11
-30.1939
 21
86.3314
  0
LINE
  8
0
 10
-30.1939
 20
86.3314
 11
-30.1561
 21
86.3314
  0
LINE
  8
0
 10
-30.1561
 20
86.3314
 11
-30.05
 21
86.4375
  0
LINE
  8
0
 10
-30.05
 20
86.4375
 11
-29.95
 21
86.4375
  0
LINE
  8
0
 10
-29.95
 20
86.4375
 11
-29.8439
 21
86.3314
  0
LINE
  8
0
 10
-29.8439
 20
86.3314
 11
-29.8061
 21
86.3314
  0
LINE
  8
0
 10
-29.8061
 20
86.3314
 11
-29.4215
 21
86.2828
  0
LINE
  8
0
 10
-29.4215
 20
86.2828
 11
-29.3849
 21
86.2734
  0
LINE
  8
0
 10
-29.3849
 20
86.2734
 11
-29.2557
 21
86.3498
  0
LINE
  8
0
 10
-29.2557
 20
86.3498
 11
-29.1589
 21
86.3249
  0
LINE
  8
0
 10
-29.1589
 20
86.3249
 11
-29.0825
 21
86.1958
  0
LINE
  8
0
 10
-29.0825
 20
86.1958
 11
-29.0459
 21
86.1864
  0
LINE
  8
0
 10
-29.0459
 20
86.1864
 11
-28.6854
 21
86.0437
  0
LINE
  8
0
 10
-28.6854
 20
86.0437
 11
-28.6523
 21
86.0254
  0
LINE
  8
0
 10
-28.6523
 20
86.0254
 11
-28.5082
 21
86.0673
  0
LINE
  8
0
 10
-28.5082
 20
86.0673
 11
-28.4206
 21
86.0191
  0
LINE
  8
0
 10
-28.4206
 20
86.0191
 11
-28.3788
 21
85.8751
  0
LINE
  8
0
 10
-28.3788
 20
85.8751
 11
-28.3456
 21
85.8569
  0
LINE
  8
0
 10
-28.3456
 20
85.8569
 11
-28.032
 21
85.629
  0
LINE
  8
0
 10
-28.032
 20
85.629
 11
-28.0044
 21
85.6031
  0
LINE
  8
0
 10
-28.0044
 20
85.6031
 11
-27.8545
 21
85.6078
  0
LINE
  8
0
 10
-27.8545
 20
85.6078
 11
-27.7816
 21
85.5394
  0
LINE
  8
0
 10
-27.7816
 20
85.5394
 11
-27.7769
 21
85.3894
  0
LINE
  8
0
 10
-27.7769
 20
85.3894
 11
-27.7493
 21
85.3635
  0
LINE
  8
0
 10
-27.7493
 20
85.3635
 11
-27.5022
 21
85.0648
  0
LINE
  8
0
 10
-27.5022
 20
85.0648
 11
-27.4819
 21
85.0329
  0
LINE
  8
0
 10
-27.4819
 20
85.0329
 11
-27.3355
 21
85.0001
  0
LINE
  8
0
 10
-27.3355
 20
85.0001
 11
-27.2819
 21
84.9157
  0
LINE
  8
0
 10
-27.2819
 20
84.9157
 11
-27.3147
 21
84.7693
  0
LINE
  8
0
 10
-27.3147
 20
84.7693
 11
-27.2944
 21
84.7374
  0
LINE
  8
0
 10
-27.2944
 20
84.7374
 11
-27.1293
 21
84.3866
  0
LINE
  8
0
 10
-27.1293
 20
84.3866
 11
-27.1176
 21
84.3506
  0
LINE
  8
0
 10
-27.1176
 20
84.3506
 11
-26.984
 21
84.2825
  0
LINE
  8
0
 10
-26.984
 20
84.2825
 11
-26.9531
 21
84.1874
  0
LINE
  8
0
 10
-26.9531
 20
84.1874
 11
-27.0212
 21
84.0538
  0
LINE
  8
0
 10
-27.0212
 20
84.0538
 11
-27.0095
 21
84.0178
  0
LINE
  8
0
 10
-27.0095
 20
84.0178
 11
-26.9368
 21
83.637
  0
LINE
  8
0
 10
-26.9368
 20
83.637
 11
-26.9345
 21
83.5992
  0
LINE
  8
0
 10
-26.9345
 20
83.5992
 11
-26.8219
 21
83.5
  0
LINE
  8
0
 10
-26.8219
 20
83.5
 11
-26.8157
 21
83.4003
  0
LINE
  8
0
 10
-26.8157
 20
83.4003
 11
-26.9149
 21
83.2877
  0
LINE
  8
0
 10
-26.9149
 20
83.2877
 11
-26.9125
 21
83.25
  0
LINE
  8
0
 10
-26.9125
 20
83.25
 11
-26.9368
 21
82.863
  0
LINE
  8
0
 10
-26.9368
 20
82.863
 11
-26.9439
 21
82.8259
  0
LINE
  8
0
 10
-26.9439
 20
82.8259
 11
-26.8596
 21
82.7018
  0
LINE
  8
0
 10
-26.8596
 20
82.7018
 11
-26.8783
 21
82.6036
  0
LINE
  8
0
 10
-26.8783
 20
82.6036
 11
-27.0024
 21
82.5193
  0
LINE
  8
0
 10
-27.0024
 20
82.5193
 11
-27.0095
 21
82.4822
  0
LINE
  8
0
 10
-27.0095
 20
82.4822
 11
-27.1293
 21
82.1134
  0
LINE
  8
0
 10
-27.1293
 20
82.1134
 11
-27.1454
 21
82.0792
  0
LINE
  8
0
 10
-27.1454
 20
82.0792
 11
-27.0946
 21
81.9381
  0
LINE
  8
0
 10
-27.0946
 20
81.9381
 11
-27.1372
 21
81.8476
  0
LINE
  8
0
 10
-27.1372
 20
81.8476
 11
-27.2783
 21
81.7968
  0
LINE
  8
0
 10
-27.2783
 20
81.7968
 11
-27.2944
 21
81.7626
  0
LINE
  8
0
 10
-27.2944
 20
81.7626
 11
-27.5022
 21
81.4352
  0
LINE
  8
0
 10
-27.5022
 20
81.4352
 11
-27.5263
 21
81.4061
  0
LINE
  8
0
 10
-27.5263
 20
81.4061
 11
-27.5121
 21
81.2567
  0
LINE
  8
0
 10
-27.5121
 20
81.2567
 11
-27.5759
 21
81.1797
  0
LINE
  8
0
 10
-27.5759
 20
81.1797
 11
-27.7252
 21
81.1656
  0
LINE
  8
0
 10
-27.7252
 20
81.1656
 11
-27.7493
 21
81.1365
  0
LINE
  8
0
 10
-27.7493
 20
81.1365
 11
-28.032
 21
80.871
  0
LINE
  8
0
 10
-28.032
 20
80.871
 11
-28.0625
 21
80.8488
  0
LINE
  8
0
 10
-28.0625
 20
80.8488
 11
-28.086
 21
80.7007
  0
LINE
  8
0
 10
-28.086
 20
80.7007
 11
-28.1669
 21
80.6419
  0
LINE
  8
0
 10
-28.1669
 20
80.6419
 11
-28.3151
 21
80.6654
  0
LINE
  8
0
 10
-28.3151
 20
80.6654
 11
-28.3456
 21
80.6431
  0
LINE
  8
0
 10
-28.3456
 20
80.6431
 11
-28.6854
 21
80.4563
  0
LINE
  8
0
 10
-28.6854
 20
80.4563
 11
-28.7205
 21
80.4424
  0
LINE
  8
0
 10
-28.7205
 20
80.4424
 11
-28.7801
 21
80.3048
  0
LINE
  8
0
 10
-28.7801
 20
80.3048
 11
-28.8731
 21
80.2679
  0
LINE
  8
0
 10
-28.8731
 20
80.2679
 11
-29.0108
 21
80.3275
  0
LINE
  8
0
 10
-29.0108
 20
80.3275
 11
-29.0459
 21
80.3136
  0
LINE
  8
0
 10
-29.0459
 20
80.3136
 11
-29.4215
 21
80.2172
  0
LINE
  8
0
 10
-29.4215
 20
80.2172
 11
-29.459
 21
80.2125
  0
LINE
  8
0
 10
-29.459
 20
80.2125
 11
-29.5509
 21
80.0939
  0
LINE
  8
0
 10
-29.5509
 20
80.0939
 11
-29.6501
 21
80.0814
  0
LINE
  8
0
 10
-29.6501
 20
80.0814
 11
-29.7686
 21
80.1733
  0
LINE
  8
0
 10
-29.7686
 20
80.1733
 11
-29.8061
 21
80.1686
  0
LINE
  8
0
 10
-29.8061
 20
80.1686
 11
-30.1939
 21
80.1686
  0
LINE
  8
0
 10
-30.1939
 20
80.1686
 11
-30.2314
 21
80.1733
  0
LINE
  8
0
 10
-30.2314
 20
80.1733
 11
-30.3499
 21
80.0814
  0
LINE
  8
0
 10
-30.3499
 20
80.0814
 11
-30.4491
 21
80.0939
  0
LINE
  8
0
 10
-30.4491
 20
80.0939
 11
-30.541
 21
80.2125
  0
LINE
  8
0
 10
-30.541
 20
80.2125
 11
-30.5785
 21
80.2172
  0
LINE
  8
0
 10
-30.5785
 20
80.2172
 11
-30.9541
 21
80.3136
  0
LINE
  8
0
 10
-30.9541
 20
80.3136
 11
-30.9892
 21
80.3275
  0
LINE
  8
0
 10
-30.9892
 20
80.3275
 11
-31.1269
 21
80.2679
  0
LINE
  8
0
 10
-31.1269
 20
80.2679
 11
-31.2199
 21
80.3048
  0
LINE
  8
0
 10
-31.2199
 20
80.3048
 11
-31.2795
 21
80.4424
  0
LINE
  8
0
 10
-31.2795
 20
80.4424
 11
-31.3146
 21
80.4563
  0
LINE
  8
0
 10
-31.3146
 20
80.4563
 11
-31.6544
 21
80.6431
  0
LINE
  8
0
 10
-31.6544
 20
80.6431
 11
-31.6849
 21
80.6654
  0
LINE
  8
0
 10
-31.6849
 20
80.6654
 11
-31.8331
 21
80.6419
  0
LINE
  8
0
 10
-31.8331
 20
80.6419
 11
-31.914
 21
80.7007
  0
LINE
  8
0
 10
-31.914
 20
80.7007
 11
-31.9375
 21
80.8488
  0
LINE
  8
0
 10
-31.9375
 20
80.8488
 11
-31.968
 21
80.871
  0
LINE
  8
0
 10
-31.968
 20
80.871
 11
-32.2507
 21
81.1365
  0
LINE
  8
0
 10
-32.2507
 20
81.1365
 11
-32.2748
 21
81.1656
  0
LINE
  8
0
 10
-32.2748
 20
81.1656
 11
-32.4241
 21
81.1797
  0
LINE
  8
0
 10
-32.4241
 20
81.1797
 11
-32.4879
 21
81.2567
  0
LINE
  8
0
 10
-32.4879
 20
81.2567
 11
-32.4737
 21
81.4061
  0
LINE
  8
0
 10
-32.4737
 20
81.4061
 11
-32.4978
 21
81.4352
  0
LINE
  8
0
 10
-32.4978
 20
81.4352
 11
-32.7056
 21
81.7626
  0
LINE
  8
0
 10
-32.7056
 20
81.7626
 11
-32.7217
 21
81.7968
  0
LINE
  8
0
 10
-32.7217
 20
81.7968
 11
-32.8628
 21
81.8476
  0
LINE
  8
0
 10
-32.8628
 20
81.8476
 11
-32.9054
 21
81.9381
  0
LINE
  8
0
 10
-32.9054
 20
81.9381
 11
-32.8546
 21
82.0792
  0
LINE
  8
0
 10
-32.8546
 20
82.0792
 11
-32.8707
 21
82.1134
  0
LINE
  8
0
 10
-32.8707
 20
82.1134
 11
-32.9905
 21
82.4822
  0
LINE
  8
0
 10
-32.9905
 20
82.4822
 11
-32.9976
 21
82.5193
  0
LINE
  8
0
 10
-32.9976
 20
82.5193
 11
-33.1217
 21
82.6036
  0
LINE
  8
0
 10
-33.1217
 20
82.6036
 11
-33.1404
 21
82.7018
  0
LINE
  8
0
 10
-33.1404
 20
82.7018
 11
-33.0561
 21
82.8259
  0
LINE
  8
0
 10
-33.0561
 20
82.8259
 11
-33.0632
 21
82.863
  0
LINE
  8
0
 10
-33.0632
 20
82.863
 11
-33.0875
 21
83.25
  0
LINE
  8
0
 10
-33.0875
 20
83.25
 11
-33.0851
 21
83.2877
  0
LINE
  8
0
 10
-33.0851
 20
83.2877
 11
-33.1843
 21
83.4003
  0
LINE
  8
0
 10
-31.125
 20
68.25
 11
-31.125
 21
76.25
  0
LINE
  8
0
 10
-31.125
 20
76.25
 11
-31.1161
 21
76.391
  0
LINE
  8
0
 10
-31.1161
 20
76.391
 11
-31.0897
 21
76.5298
  0
LINE
  8
0
 10
-31.0897
 20
76.5298
 11
-31.046
 21
76.6641
  0
LINE
  8
0
 10
-31.046
 20
76.6641
 11
-30.9858
 21
76.792
  0
LINE
  8
0
 10
-30.9858
 20
76.792
 11
-30.9101
 21
76.9113
  0
LINE
  8
0
 10
-30.9101
 20
76.9113
 11
-30.8201
 21
77.0201
  0
LINE
  8
0
 10
-30.8201
 20
77.0201
 11
-30.7171
 21
77.1168
  0
LINE
  8
0
 10
-30.7171
 20
77.1168
 11
-30.6028
 21
77.1999
  0
LINE
  8
0
 10
-30.6028
 20
77.1999
 11
-30.479
 21
77.2679
  0
LINE
  8
0
 10
-30.479
 20
77.2679
 11
-30.3476
 21
77.3199
  0
LINE
  8
0
 10
-30.3476
 20
77.3199
 11
-30.2108
 21
77.3551
  0
LINE
  8
0
 10
-30.2108
 20
77.3551
 11
-30.0706
 21
77.3728
  0
LINE
  8
0
 10
-30.0706
 20
77.3728
 11
-29.9294
 21
77.3728
  0
LINE
  8
0
 10
-29.9294
 20
77.3728
 11
-29.7892
 21
77.3551
  0
LINE
  8
0
 10
-29.7892
 20
77.3551
 11
-29.6524
 21
77.3199
  0
LINE
  8
0
 10
-29.6524
 20
77.3199
 11
-29.521
 21
77.2679
  0
LINE
  8
0
 10
-29.521
 20
77.2679
 11
-29.3972
 21
77.1999
  0
LINE
  8
0
 10
-29.3972
 20
77.1999
 11
-29.2829
 21
77.1168
  0
LINE
  8
0
 10
-29.2829
 20
77.1168
 11
-29.1799
 21
77.0201
  0
LINE
  8
0
 10
-29.1799
 20
77.0201
 11
-29.0899
 21
76.9113
  0
LINE
  8
0
 10
-29.0899
 20
76.9113
 11
-29.0142
 21
76.792
  0
LINE
  8
0
 10
-29.0142
 20
76.792
 11
-28.954
 21
76.6641
  0
LINE
  8
0
 10
-28.954
 20
76.6641
 11
-28.9103
 21
76.5298
  0
LINE
  8
0
 10
-28.9103
 20
76.5298
 11
-28.8839
 21
76.391
  0
LINE
  8
0
 10
-28.8839
 20
76.391
 11
-28.875
 21
76.25
  0
LINE
  8
0
 10
-28.875
 20
76.25
 11
-28.875
 21
68.25
  0
LINE
  8
0
 10
-28.875
 20
68.25
 11
-28.8839
 21
68.109
  0
LINE
  8
0
 10
-28.8839
 20
68.109
 11
-28.9103
 21
67.9702
  0
LINE
  8
0
 10
-28.9103
 20
67.9702
 11
-28.954
 21
67.8359
  0
LINE
  8
0
 10
-28.954
 20
67.8359
 11
-29.0142
 21
67.708
  0
LINE
  8
0
 10
-29.0142
 20
67.708
 11
-29.0899
 21
67.5887
  0
LINE
  8
0
 10
-29.0899
 20
67.5887
 11
-29.1799
 21
67.4799
  0
LINE
  8
0
 10
-29.1799
 20
67.4799
 11
-29.2829
 21
67.3832
  0
LINE
  8
0
 10
-29.2829
 20
67.3832
 11
-29.3972
 21
67.3001
  0
LINE
  8
0
 10
-29.3972
 20
67.3001
 11
-29.521
 21
67.2321
  0
LINE
  8
0
 10
-29.521
 20
67.2321
 11
-29.6524
 21
67.1801
  0
LINE
  8
0
 10
-29.6524
 20
67.1801
 11
-29.7892
 21
67.1449
  0
LINE
  8
0
 10
-29.7892
 20
67.1449
 11
-29.9294
 21
67.1272
  0
LINE
  8
0
 10
-29.9294
 20
67.1272
 11
-30.0706
 21
67.1272
  0
LINE
  8
0
 10
-30.0706
 20
67.1272
 11
-30.2108
 21
67.1449
  0
LINE
  8
0
 10
-30.2108
 20
67.1449
 11
-30.3476
 21
67.1801
  0
LINE
  8
0
 10
-30.3476
 20
67.1801
 11
-30.479
 21
67.2321
  0
LINE
  8
0
 10
-30.479
 20
67.2321
 11
-30.6028
 21
67.3001
  0
LINE
  8
0
 10
-30.6028
 20
67.3001
 11
-30.7171
 21
67.3832
  0
LINE
  8
0
 10
-30.7171
 20
67.3832
 11
-30.8201
 21
67.4799
  0
LINE
  8
0
 10
-30.8201
 20
67.4799
 11
-30.9101
 21
67.5887
  0
LINE
  8
0
 10
-30.9101
 20
67.5887
 11
-30.9858
 21
67.708
  0
LINE
  8
0
 10
-30.9858
 20
67.708
 11
-31.046
 21
67.8359
  0
LINE
  8
0
 10
-31.046
 20
67.8359
 11
-31.0897
 21
67.9702
  0
LINE
  8
0
 10
-31.0897
 20
67.9702
 11
-31.1161
 21
68.109
  0
LINE
  8
0
 10
-31.1161
 20
68.109
 11
-31.125
 21
68.25
  0
LINE
  8
0
 10
-31.125
 20
90.25
 11
-31.125
 21
98.25
  0
LINE
  8
0
 10
-31.125
 20
98.25
 11
-31.1161
 21
98.391
  0
LINE
  8
0
 10
-31.1161
 20
98.391
 11
-31.0897
 21
98.5298
  0
LINE
  8
0
 10
-31.0897
 20
98.5298
 11
-31.046
 21
98.6641
  0
LINE
  8
0
 10
-31.046
 20
98.6641
 11
-30.9858
 21
98.792
  0
LINE
  8
0
 10
-30.9858
 20
98.792
 11
-30.9101
 21
98.9113
  0
LINE
  8
0
 10
-30.9101
 20
98.9113
 11
-30.8201
 21
99.0201
  0
LINE
  8
0
 10
-30.8201
 20
99.0201
 11
-30.7171
 21
99.1168
  0
LINE
  8
0
 10
-30.7171
 20
99.1168
 11
-30.6028
 21
99.1999
  0
LINE
  8
0
 10
-30.6028
 20
99.1999
 11
-30.479
 21
99.2679
  0
LINE
  8
0
 10
-30.479
 20
99.2679
 11
-30.3476
 21
99.3199
  0
LINE
  8
0
 10
-30.3476
 20
99.3199
 11
-30.2108
 21
99.3551
  0
LINE
  8
0
 10
-30.2108
 20
99.3551
 11
-30.0706
 21
99.3728
  0
LINE
  8
0
 10
-30.0706
 20
99.3728
 11
-29.9294
 21
99.3728
  0
LINE
  8
0
 10
-29.9294
 20
99.3728
 11
-29.7892
 21
99.3551
  0
LINE
  8
0
 10
-29.7892
 20
99.3551
 11
-29.6524
 21
99.3199
  0
LINE
  8
0
 10
-29.6524
 20
99.3199
 11
-29.521
 21
99.2679
  0
LINE
  8
0
 10
-29.521
 20
99.2679
 11
-29.3972
 21
99.1999
  0
LINE
  8
0
 10
-29.3972
 20
99.1999
 11
-29.2829
 21
99.1168
  0
LINE
  8
0
 10
-29.2829
 20
99.1168
 11
-29.1799
 21
99.0201
  0
LINE
  8
0
 10
-29.1799
 20
99.0201
 11
-29.0899
 21
98.9113
  0
LINE
  8
0
 10
-29.0899
 20
98.9113
 11
-29.0142
 21
98.792
  0
LINE
  8
0
 10
-29.0142
 20
98.792
 11
-28.954
 21
98.6641
  0
LINE
  8
0
 10
-28.954
 20
98.6641
 11
-28.9103
 21
98.5298
  0
LINE
  8
0
 10
-28.9103
 20
98.5298
 11
-28.8839
 21
98.391
  0
LINE
  8
0
 10
-28.8839
 20
98.391
 11
-28.875
 21
98.25
  0
LINE
  8
0
 10
-28.875
 20
98.25
 11
-28.875
 21
90.25
  0
LINE
  8
0
 10
-28.875
 20
90.25
 11
-28.8839
 21
90.109
  0
LINE
  8
0
 10
-28.8839
 20
90.109
 11
-28.9103
 21
89.9702
  0
LINE
  8
0
 10
-28.9103
 20
89.9702
 11
-28.954
 21
89.8359
  0
LINE
  8
0
 10
-28.954
 20
89.8359
 11
-29.0142
 21
89.708
  0
LINE
  8
0
 10
-29.0142
 20
89.708
 11
-29.0899
 21
89.5887
  0
LINE
  8
0
 10
-29.0899
 20
89.5887
 11
-29.1799
 21
89.4799
  0
LINE
  8
0
 10
-29.1799
 20
89.4799
 11
-29.2829
 21
89.3832
  0
LINE
  8
0
 10
-29.2829
 20
89.3832
 11
-29.3972
 21
89.3001
  0
LINE
  8
0
 10
-29.3972
 20
89.3001
 11
-29.521
 21
89.2321
  0
LINE
  8
0
 10
-29.521
 20
89.2321
 11
-29.6524
 21
89.1801
  0
LINE
  8
0
 10
-29.6524
 20
89.1801
 11
-29.7892
 21
89.1449
  0
LINE
  8
0
 10
-29.7892
 20
89.1449
 11
-29.9294
 21
89.1272
  0
LINE
  8
0
 10
-29.9294
 20
89.1272
 11
-30.0706
 21
89.1272
  0
LINE
  8
0
 10
-30.0706
 20
89.1272
 11
-30.2108
 21
89.1449
  0
LINE
  8
0
 10
-30.2108
 20
89.1449
 11
-30.3476
 21
89.1801
  0
LINE
  8
0
 10
-30.3476
 20
89.1801
 11
-30.479
 21
89.2321
  0
LINE
  8
0
 10
-30.479
 20
89.2321
 11
-30.6028
 21
89.3001
  0
LINE
  8
0
 10
-30.6028
 20
89.3001
 11
-30.7171
 21
89.3832
  0
LINE
  8
0
 10
-30.7171
 20
89.3832
 11
-30.8201
 21
89.4799
  0
LINE
  8
0
 10
-30.8201
 20
89.4799
 11
-30.9101
 21
89.5887
  0
LINE
  8
0
 10
-30.9101
 20
89.5887
 11
-30.9858
 21
89.708
  0
LINE
  8
0
 10
-30.9858
 20
89.708
 11
-31.046
 21
89.8359
  0
LINE
  8
0
 10
-31.046
 20
89.8359
 11
-31.0897
 21
89.9702
  0
LINE
  8
0
 10
-31.0897
 20
89.9702
 11
-31.1161
 21
90.109
  0
LINE
  8
0
 10
-31.1161
 20
90.109
 11
-31.125
 21
90.25
  0
LINE
  8
0
 10
-7.89795
 20
12
 11
92.1021
 21
12
  0
LINE
  8
0
 10
92.1021
 20
12
 11
92.1021
 21
57
  0
LINE
  8
0
 10
92.1021
 20
57
 11
-7.89795
 21
57
  0
LINE
  8
0
 10
-7.89795
 20
57
 11
-7.89795
 21
12
  0
LINE
  8
0
 10
5.55205
 20
29.45
 11
5.55205
 21
39.55
  0
LINE
  8
0
 10
5.55205
 20
39.55
 11
10.402
 21
39.55
  0
LINE
  8
0
 10
10.402
 20
39.55
 11
10.402
 21
29.45
  0
LINE
  8
0
 10
10.402
 20
29.45
 11
5.55205
 21
29.45
  0
LINE
  8
0
 10
73.8021
 20
29.45
 11
73.8021
 21
39.55
  0
LINE
  8
0
 10
73.8021
 20
39.55
 11
78.652
 21
39.55
  0
LINE
  8
0
 10
78.652
 20
39.55
 11
78.652
 21
29.45
  0
LINE
  8
0
 10
78.652
 20
29.45
 11
73.8021
 21
29.45
  0
LINE
  8
0
 10
1.50138
 20
-22.6166
 11
6.09353
 21
-23.4263
  0
LINE
  8
0
 10
6.09353
 20
-23.4263
 11
2.00001
 21
-47
  0
LINE
  8
0
 10
2.00001
 20
-47
 11
92.3979
 21
-47
  0
LINE
  8
0
 10
92.3979
 20
-47
 11
92.3979
 21
10
  0
LINE
  8
0
 10
92.3979
 20
10
 11
11.8979
 21
10
  0
LINE
  8
0
 10
11.8979
 20
10
 11
7.80442
 21
-13.5737
  0
LINE
  8
0
 10
7.80442
 20
-13.5737
 11
3.23787
 21
-12.7685
  0
LINE
  8
0
 10
3.23787
 20
-12.7685
 11
1.50138
 21
-22.6166
  0
LINE
  8
0
 10
8.64308
 20
-42.05
 11
8.64308
 21
-37.2
  0
LINE
  8
0
 10
8.64308
 20
-37.2
 11
18.7431
 21
-37.2
  0
LINE
  8
0
 10
18.7431
 20
-37.2
 11
18.7431
 21
-42.05
  0
LINE
  8
0
 10
18.7431
 20
-42.05
 11
8.64308
 21
-42.05
  0
LINE
  8
0
 10
16.8479
 20
0.199997
 11
16.8479
 21
5.04999
  0
LINE
  8
0
 10
16.8479
 20
5.04999
 11
26.9479
 21
5.04999
  0
LINE
  8
0
 10
26.9479
 20
5.04999
 11
26.9479
 21
0.199997
  0
LINE
  8
0
 10
26.9479
 20
0.199997
 11
16.8479
 21
0.199997
  0
LINE
  8
0
 10
24.2729
 20
-31.5
 11
24.2818
 21
-31.359
  0
LINE
  8
0
 10
24.2818
 20
-31.359
 11
24.3083
 21
-31.2202
  0
LINE
  8
0
 10
24.3083
 20
-31.2202
 11
24.352
 21
-31.0859
  0
LINE
  8
0
 10
24.352
 20
-31.0859
 11
24.4121
 21
-30.958
  0
LINE
  8
0
 10
24.4121
 20
-30.958
 11
24.4878
 21
-30.8387
  0
LINE
  8
0
 10
24.4878
 20
-30.8387
 11
24.5779
 21
-30.7299
  0
LINE
  8
0
 10
24.5779
 20
-30.7299
 11
24.6809
 21
-30.6332
  0
LINE
  8
0
 10
24.6809
 20
-30.6332
 11
24.7951
 21
-30.5501
  0
LINE
  8
0
 10
24.7951
 20
-30.5501
 11
24.919
 21
-30.4821
  0
LINE
  8
0
 10
24.919
 20
-30.4821
 11
25.0503
 21
-30.4301
  0
LINE
  8
0
 10
25.0503
 20
-30.4301
 11
25.1871
 21
-30.3949
  0
LINE
  8
0
 10
25.1871
 20
-30.3949
 11
25.3273
 21
-30.3772
  0
LINE
  8
0
 10
25.3273
 20
-30.3772
 11
25.4686
 21
-30.3772
  0
LINE
  8
0
 10
25.4686
 20
-30.3772
 11
25.6088
 21
-30.3949
  0
LINE
  8
0
 10
25.6088
 20
-30.3949
 11
25.7456
 21
-30.4301
  0
LINE
  8
0
 10
25.7456
 20
-30.4301
 11
25.8769
 21
-30.4821
  0
LINE
  8
0
 10
25.8769
 20
-30.4821
 11
26.0008
 21
-30.5501
  0
LINE
  8
0
 10
26.0008
 20
-30.5501
 11
26.115
 21
-30.6332
  0
LINE
  8
0
 10
26.115
 20
-30.6332
 11
26.218
 21
-30.7299
  0
LINE
  8
0
 10
26.218
 20
-30.7299
 11
26.3081
 21
-30.8387
  0
LINE
  8
0
 10
26.3081
 20
-30.8387
 11
26.3838
 21
-30.958
  0
LINE
  8
0
 10
26.3838
 20
-30.958
 11
26.444
 21
-31.0859
  0
LINE
  8
0
 10
26.444
 20
-31.0859
 11
26.4876
 21
-31.2202
  0
LINE
  8
0
 10
26.4876
 20
-31.2202
 11
26.5141
 21
-31.359
  0
LINE
  8
0
 10
26.5141
 20
-31.359
 11
26.5229
 21
-31.5
  0
LINE
  8
0
 10
26.5229
 20
-31.5
 11
26.5141
 21
-31.641
  0
LINE
  8
0
 10
26.5141
 20
-31.641
 11
26.4876
 21
-31.7798
  0
LINE
  8
0
 10
26.4876
 20
-31.7798
 11
26.444
 21
-31.9142
  0
LINE
  8
0
 10
26.444
 20
-31.9142
 11
26.3838
 21
-32.042
  0
LINE
  8
0
 10
26.3838
 20
-32.042
 11
26.3081
 21
-32.1613
  0
LINE
  8
0
 10
26.3081
 20
-32.1613
 11
26.218
 21
-32.2701
  0
LINE
  8
0
 10
26.218
 20
-32.2701
 11
26.115
 21
-32.3668
  0
LINE
  8
0
 10
26.115
 20
-32.3668
 11
26.0008
 21
-32.4499
  0
LINE
  8
0
 10
26.0008
 20
-32.4499
 11
25.8769
 21
-32.5179
  0
LINE
  8
0
 10
25.8769
 20
-32.5179
 11
25.7456
 21
-32.5699
  0
LINE
  8
0
 10
25.7456
 20
-32.5699
 11
25.6088
 21
-32.6051
  0
LINE
  8
0
 10
25.6088
 20
-32.6051
 11
25.4686
 21
-32.6228
  0
LINE
  8
0
 10
25.4686
 20
-32.6228
 11
25.3273
 21
-32.6228
  0
LINE
  8
0
 10
25.3273
 20
-32.6228
 11
25.1871
 21
-32.6051
  0
LINE
  8
0
 10
25.1871
 20
-32.6051
 11
25.0503
 21
-32.5699
  0
LINE
  8
0
 10
25.0503
 20
-32.5699
 11
24.919
 21
-32.5179
  0
LINE
  8
0
 10
24.919
 20
-32.5179
 11
24.7951
 21
-32.4499
  0
LINE
  8
0
 10
24.7951
 20
-32.4499
 11
24.6809
 21
-32.3668
  0
LINE
  8
0
 10
24.6809
 20
-32.3668
 11
24.5779
 21
-32.2701
  0
LINE
  8
0
 10
24.5779
 20
-32.2701
 11
24.4878
 21
-32.1613
  0
LINE
  8
0
 10
24.4878
 20
-32.1613
 11
24.4121
 21
-32.042
  0
LINE
  8
0
 10
24.4121
 20
-32.042
 11
24.352
 21
-31.9142
  0
LINE
  8
0
 10
24.352
 20
-31.9142
 11
24.3083
 21
-31.7798
  0
LINE
  8
0
 10
24.3083
 20
-31.7798
 11
24.2818
 21
-31.641
  0
LINE
  8
0
 10
24.2818
 20
-31.641
 11
24.2729
 21
-31.5
  0
LINE
  8
0
 10
24.2729
 20
-21.5
 11
24.2818
 21
-21.359
  0
LINE
  8
0
 10
24.2818
 20
-21.359
 11
24.3083
 21
-21.2202
  0
LINE
  8
0
 10
24.3083
 20
-21.2202
 11
24.352
 21
-21.0859
  0
LINE
  8
0
 10
24.352
 20
-21.0859
 11
24.4121
 21
-20.958
  0
LINE
  8
0
 10
24.4121
 20
-20.958
 11
24.4878
 21
-20.8387
  0
LINE
  8
0
 10
24.4878
 20
-20.8387
 11
24.5779
 21
-20.7299
  0
LINE
  8
0
 10
24.5779
 20
-20.7299
 11
24.6809
 21
-20.6332
  0
LINE
  8
0
 10
24.6809
 20
-20.6332
 11
24.7951
 21
-20.5501
  0
LINE
  8
0
 10
24.7951
 20
-20.5501
 11
24.919
 21
-20.4821
  0
LINE
  8
0
 10
24.919
 20
-20.4821
 11
25.0503
 21
-20.4301
  0
LINE
  8
0
 10
25.0503
 20
-20.4301
 11
25.1871
 21
-20.3949
  0
LINE
  8
0
 10
25.1871
 20
-20.3949
 11
25.3273
 21
-20.3772
  0
LINE
  8
0
 10
25.3273
 20
-20.3772
 11
25.4686
 21
-20.3772
  0
LINE
  8
0
 10
25.4686
 20
-20.3772
 11
25.6088
 21
-20.3949
  0
LINE
  8
0
 10
25.6088
 20
-20.3949
 11
25.7456
 21
-20.4301
  0
LINE
  8
0
 10
25.7456
 20
-20.4301
 11
25.8769
 21
-20.4821
  0
LINE
  8
0
 10
25.8769
 20
-20.4821
 11
26.0008
 21
-20.5501
  0
LINE
  8
0
 10
26.0008
 20
-20.5501
 11
26.115
 21
-20.6332
  0
LINE
  8
0
 10
26.115
 20
-20.6332
 11
26.218
 21
-20.7299
  0
LINE
  8
0
 10
26.218
 20
-20.7299
 11
26.3081
 21
-20.8387
  0
LINE
  8
0
 10
26.3081
 20
-20.8387
 11
26.3838
 21
-20.958
  0
LINE
  8
0
 10
26.3838
 20
-20.958
 11
26.444
 21
-21.0859
  0
LINE
  8
0
 10
26.444
 20
-21.0859
 11
26.4876
 21
-21.2202
  0
LINE
  8
0
 10
26.4876
 20
-21.2202
 11
26.5141
 21
-21.359
  0
LINE
  8
0
 10
26.5141
 20
-21.359
 11
26.5229
 21
-21.5
  0
LINE
  8
0
 10
26.5229
 20
-21.5
 11
26.5141
 21
-21.641
  0
LINE
  8
0
 10
26.5141
 20
-21.641
 11
26.4876
 21
-21.7798
  0
LINE
  8
0
 10
26.4876
 20
-21.7798
 11
26.444
 21
-21.9142
  0
LINE
  8
0
 10
26.444
 20
-21.9142
 11
26.3838
 21
-22.042
  0
LINE
  8
0
 10
26.3838
 20
-22.042
 11
26.3081
 21
-22.1613
  0
LINE
  8
0
 10
26.3081
 20
-22.1613
 11
26.218
 21
-22.2701
  0
LINE
  8
0
 10
26.218
 20
-22.2701
 11
26.115
 21
-22.3668
  0
LINE
  8
0
 10
26.115
 20
-22.3668
 11
26.0008
 21
-22.4499
  0
LINE
  8
0
 10
26.0008
 20
-22.4499
 11
25.8769
 21
-22.5179
  0
LINE
  8
0
 10
25.8769
 20
-22.5179
 11
25.7456
 21
-22.5699
  0
LINE
  8
0
 10
25.7456
 20
-22.5699
 11
25.6088
 21
-22.6051
  0
LINE
  8
0
 10
25.6088
 20
-22.6051
 11
25.4686
 21
-22.6228
  0
LINE
  8
0
 10
25.4686
 20
-22.6228
 11
25.3273
 21
-22.6228
  0
LINE
  8
0
 10
25.3273
 20
-22.6228
 11
25.1871
 21
-22.6051
  0
LINE
  8
0
 10
25.1871
 20
-22.6051
 11
25.0503
 21
-22.5699
  0
LINE
  8
0
 10
25.0503
 20
-22.5699
 11
24.919
 21
-22.5179
  0
LINE
  8
0
 10
24.919
 20
-22.5179
 11
24.7951
 21
-22.4499
  0
LINE
  8
0
 10
24.7951
 20
-22.4499
 11
24.6809
 21
-22.3668
  0
LINE
  8
0
 10
24.6809
 20
-22.3668
 11
24.5779
 21
-22.2701
  0
LINE
  8
0
 10
24.5779
 20
-22.2701
 11
24.4878
 21
-22.1613
  0
LINE
  8
0
 10
24.4878
 20
-22.1613
 11
24.4121
 21
-22.042
  0
LINE
  8
0
 10
24.4121
 20
-22.042
 11
24.352
 21
-21.9142
  0
LINE
  8
0
 10
24.352
 20
-21.9142
 11
24.3083
 21
-21.7798
  0
LINE
  8
0
 10
24.3083
 20
-21.7798
 11
24.2818
 21
-21.641
  0
LINE
  8
0
 10
24.2818
 20
-21.641
 11
24.2729
 21
-21.5
  0
LINE
  8
0
 10
29.8979
 20
-37.25
 11
29.8979
 21
-15.75
  0
LINE
  8
0
 10
29.8979
 20
-15.75
 11
72.3979
 21
-15.75
  0
LINE
  8
0
 10
72.3979
 20
-15.75
 11
72.3979
 21
-23.5
  0
LINE
  8
0
 10
72.3979
 20
-23.5
 11
74.3979
 21
-23.5
  0
LINE
  8
0
 10
74.3979
 20
-23.5
 11
75.0863
 21
-23.5059
  0
LINE
  8
0
 10
75.0863
 20
-23.5059
 11
75.4601
 21
-23.5531
  0
LINE
  8
0
 10
75.4601
 20
-23.5531
 11
75.825
 21
-23.6468
  0
LINE
  8
0
 10
75.825
 20
-23.6468
 11
76.1753
 21
-23.7855
  0
LINE
  8
0
 10
76.1753
 20
-23.7855
 11
76.5054
 21
-23.967
  0
LINE
  8
0
 10
76.5054
 20
-23.967
 11
76.8102
 21
-24.1885
  0
LINE
  8
0
 10
76.8102
 20
-24.1885
 11
77.0849
 21
-24.4464
  0
LINE
  8
0
 10
77.0849
 20
-24.4464
 11
77.325
 21
-24.7366
  0
LINE
  8
0
 10
77.325
 20
-24.7366
 11
77.5269
 21
-25.0547
  0
LINE
  8
0
 10
77.5269
 20
-25.0547
 11
77.6873
 21
-25.3956
  0
LINE
  8
0
 10
77.6873
 20
-25.3956
 11
77.8037
 21
-25.7539
  0
LINE
  8
0
 10
77.8037
 20
-25.7539
 11
77.8743
 21
-26.124
  0
LINE
  8
0
 10
77.8743
 20
-26.124
 11
77.8979
 21
-26.5
  0
LINE
  8
0
 10
77.8979
 20
-26.5
 11
77.8743
 21
-26.876
  0
LINE
  8
0
 10
77.8743
 20
-26.876
 11
77.8037
 21
-27.2461
  0
LINE
  8
0
 10
77.8037
 20
-27.2461
 11
77.6873
 21
-27.6044
  0
LINE
  8
0
 10
77.6873
 20
-27.6044
 11
77.5269
 21
-27.9453
  0
LINE
  8
0
 10
77.5269
 20
-27.9453
 11
77.325
 21
-28.2634
  0
LINE
  8
0
 10
77.325
 20
-28.2634
 11
77.0849
 21
-28.5536
  0
LINE
  8
0
 10
77.0849
 20
-28.5536
 11
76.8102
 21
-28.8116
  0
LINE
  8
0
 10
76.8102
 20
-28.8116
 11
76.5054
 21
-29.033
  0
LINE
  8
0
 10
76.5054
 20
-29.033
 11
76.1753
 21
-29.2145
  0
LINE
  8
0
 10
76.1753
 20
-29.2145
 11
75.825
 21
-29.3532
  0
LINE
  8
0
 10
75.825
 20
-29.3532
 11
75.4601
 21
-29.4469
  0
LINE
  8
0
 10
75.4601
 20
-29.4469
 11
75.0863
 21
-29.4941
  0
LINE
  8
0
 10
75.0863
 20
-29.4941
 11
74.3979
 21
-29.5
  0
LINE
  8
0
 10
74.3979
 20
-29.5
 11
72.3979
 21
-29.5
  0
LINE
  8
0
 10
72.3979
 20
-29.5
 11
72.3979
 21
-37.25
  0
LINE
  8
0
 10
72.3979
 20
-37.25
 11
29.8979
 21
-37.25
  0
LINE
  8
0
 10
75.7729
 20
-31.5
 11
75.7818
 21
-31.359
  0
LINE
  8
0
 10
75.7818
 20
-31.359
 11
75.8083
 21
-31.2202
  0
LINE
  8
0
 10
75.8083
 20
-31.2202
 11
75.8519
 21
-31.0859
  0
LINE
  8
0
 10
75.8519
 20
-31.0859
 11
75.9121
 21
-30.958
  0
LINE
  8
0
 10
75.9121
 20
-30.958
 11
75.9878
 21
-30.8387
  0
LINE
  8
0
 10
75.9878
 20
-30.8387
 11
76.0778
 21
-30.7299
  0
LINE
  8
0
 10
76.0778
 20
-30.7299
 11
76.1808
 21
-30.6332
  0
LINE
  8
0
 10
76.1808
 20
-30.6332
 11
76.2951
 21
-30.5501
  0
LINE
  8
0
 10
76.2951
 20
-30.5501
 11
76.4189
 21
-30.4821
  0
LINE
  8
0
 10
76.4189
 20
-30.4821
 11
76.5503
 21
-30.4301
  0
LINE
  8
0
 10
76.5503
 20
-30.4301
 11
76.6871
 21
-30.3949
  0
LINE
  8
0
 10
76.6871
 20
-30.3949
 11
76.8273
 21
-30.3772
  0
LINE
  8
0
 10
76.8273
 20
-30.3772
 11
76.9686
 21
-30.3772
  0
LINE
  8
0
 10
76.9686
 20
-30.3772
 11
77.1087
 21
-30.3949
  0
LINE
  8
0
 10
77.1087
 20
-30.3949
 11
77.2456
 21
-30.4301
  0
LINE
  8
0
 10
77.2456
 20
-30.4301
 11
77.3769
 21
-30.4821
  0
LINE
  8
0
 10
77.3769
 20
-30.4821
 11
77.5007
 21
-30.5501
  0
LINE
  8
0
 10
77.5007
 20
-30.5501
 11
77.615
 21
-30.6332
  0
LINE
  8
0
 10
77.615
 20
-30.6332
 11
77.718
 21
-30.7299
  0
LINE
  8
0
 10
77.718
 20
-30.7299
 11
77.8081
 21
-30.8387
  0
LINE
  8
0
 10
77.8081
 20
-30.8387
 11
77.8838
 21
-30.958
  0
LINE
  8
0
 10
77.8838
 20
-30.958
 11
77.9439
 21
-31.0859
  0
LINE
  8
0
 10
77.9439
 20
-31.0859
 11
77.9876
 21
-31.2202
  0
LINE
  8
0
 10
77.9876
 20
-31.2202
 11
78.0141
 21
-31.359
  0
LINE
  8
0
 10
78.0141
 20
-31.359
 11
78.0229
 21
-31.5
  0
LINE
  8
0
 10
78.0229
 20
-31.5
 11
78.0141
 21
-31.641
  0
LINE
  8
0
 10
78.0141
 20
-31.641
 11
77.9876
 21
-31.7798
  0
LINE
  8
0
 10
77.9876
 20
-31.7798
 11
77.9439
 21
-31.9142
  0
LINE
  8
0
 10
77.9439
 20
-31.9142
 11
77.8838
 21
-32.042
  0
LINE
  8
0
 10
77.8838
 20
-32.042
 11
77.8081
 21
-32.1613
  0
LINE
  8
0
 10
77.8081
 20
-32.1613
 11
77.718
 21
-32.2701
  0
LINE
  8
0
 10
77.718
 20
-32.2701
 11
77.615
 21
-32.3668
  0
LINE
  8
0
 10
77.615
 20
-32.3668
 11
77.5007
 21
-32.4499
  0
LINE
  8
0
 10
77.5007
 20
-32.4499
 11
77.3769
 21
-32.5179
  0
LINE
  8
0
 10
77.3769
 20
-32.5179
 11
77.2456
 21
-32.5699
  0
LINE
  8
0
 10
77.2456
 20
-32.5699
 11
77.1087
 21
-32.6051
  0
LINE
  8
0
 10
77.1087
 20
-32.6051
 11
76.9686
 21
-32.6228
  0
LINE
  8
0
 10
76.9686
 20
-32.6228
 11
76.8273
 21
-32.6228
  0
LINE
  8
0
 10
76.8273
 20
-32.6228
 11
76.6871
 21
-32.6051
  0
LINE
  8
0
 10
76.6871
 20
-32.6051
 11
76.5503
 21
-32.5699
  0
LINE
  8
0
 10
76.5503
 20
-32.5699
 11
76.4189
 21
-32.5179
  0
LINE
  8
0
 10
76.4189
 20
-32.5179
 11
76.2951
 21
-32.4499
  0
LINE
  8
0
 10
76.2951
 20
-32.4499
 11
76.1808
 21
-32.3668
  0
LINE
  8
0
 10
76.1808
 20
-32.3668
 11
76.0778
 21
-32.2701
  0
LINE
  8
0
 10
76.0778
 20
-32.2701
 11
75.9878
 21
-32.1613
  0
LINE
  8
0
 10
75.9878
 20
-32.1613
 11
75.9121
 21
-32.042
  0
LINE
  8
0
 10
75.9121
 20
-32.042
 11
75.8519
 21
-31.9142
  0
LINE
  8
0
 10
75.8519
 20
-31.9142
 11
75.8083
 21
-31.7798
  0
LINE
  8
0
 10
75.8083
 20
-31.7798
 11
75.7818
 21
-31.641
  0
LINE
  8
0
 10
75.7818
 20
-31.641
 11
75.7729
 21
-31.5
  0
LINE
  8
0
 10
75.7729
 20
-21.5
 11
75.7818
 21
-21.359
  0
LINE
  8
0
 10
75.7818
 20
-21.359
 11
75.8083
 21
-21.2202
  0
LINE
  8
0
 10
75.8083
 20
-21.2202
 11
75.8519
 21
-21.0859
  0
LINE
  8
0
 10
75.8519
 20
-21.0859
 11
75.9121
 21
-20.958
  0
LINE
  8
0
 10
75.9121
 20
-20.958
 11
75.9878
 21
-20.8387
  0
LINE
  8
0
 10
75.9878
 20
-20.8387
 11
76.0778
 21
-20.7299
  0
LINE
  8
0
 10
76.0778
 20
-20.7299
 11
76.1808
 21
-20.6332
  0
LINE
  8
0
 10
76.1808
 20
-20.6332
 11
76.2951
 21
-20.5501
  0
LINE
  8
0
 10
76.2951
 20
-20.5501
 11
76.4189
 21
-20.4821
  0
LINE
  8
0
 10
76.4189
 20
-20.4821
 11
76.5503
 21
-20.4301
  0
LINE
  8
0
 10
76.5503
 20
-20.4301
 11
76.6871
 21
-20.3949
  0
LINE
  8
0
 10
76.6871
 20
-20.3949
 11
76.8273
 21
-20.3772
  0
LINE
  8
0
 10
76.8273
 20
-20.3772
 11
76.9686
 21
-20.3772
  0
LINE
  8
0
 10
76.9686
 20
-20.3772
 11
77.1087
 21
-20.3949
  0
LINE
  8
0
 10
77.1087
 20
-20.3949
 11
77.2456
 21
-20.4301
  0
LINE
  8
0
 10
77.2456
 20
-20.4301
 11
77.3769
 21
-20.4821
  0
LINE
  8
0
 10
77.3769
 20
-20.4821
 11
77.5007
 21
-20.5501
  0
LINE
  8
0
 10
77.5007
 20
-20.5501
 11
77.615
 21
-20.6332
  0
LINE
  8
0
 10
77.615
 20
-20.6332
 11
77.718
 21
-20.7299
  0
LINE
  8
0
 10
77.718
 20
-20.7299
 11
77.8081
 21
-20.8387
  0
LINE
  8
0
 10
77.8081
 20
-20.8387
 11
77.8838
 21
-20.958
  0
LINE
  8
0
 10
77.8838
 20
-20.958
 11
77.9439
 21
-21.0859
  0
LINE
  8
0
 10
77.9439
 20
-21.0859
 11
77.9876
 21
-21.2202
  0
LINE
  8
0
 10
77.9876
 20
-21.2202
 11
78.0141
 21
-21.359
  0
LINE
  8
0
 10
78.0141
 20
-21.359
 11
78.0229
 21
-21.5
  0
LINE
  8
0
 10
78.0229
 20
-21.5
 11
78.0141
 21
-21.641
  0
LINE
  8
0
 10
78.0141
 20
-21.641
 11
77.9876
 21
-21.7798
  0
LINE
  8
0
 10
77.9876
 20
-21.7798
 11
77.9439
 21
-21.9142
  0
LINE
  8
0
 10
77.9439
 20
-21.9142
 11
77.8838
 21
-22.042
  0
LINE
  8
0
 10
77.8838
 20
-22.042
 11
77.8081
 21
-22.1613
  0
LINE
  8
0
 10
77.8081
 20
-22.1613
 11
77.718
 21
-22.2701
  0
LINE
  8
0
 10
77.718
 20
-22.2701
 11
77.615
 21
-22.3668
  0
LINE
  8
0
 10
77.615
 20
-22.3668
 11
77.5007
 21
-22.4499
  0
LINE
  8
0
 10
77.5007
 20
-22.4499
 11
77.3769
 21
-22.5179
  0
LINE
  8
0
 10
77.3769
 20
-22.5179
 11
77.2456
 21
-22.5699
  0
LINE
  8
0
 10
77.2456
 20
-22.5699
 11
77.1087
 21
-22.6051
  0
LINE
  8
0
 10
77.1087
 20
-22.6051
 11
76.9686
 21
-22.6228
  0
LINE
  8
0
 10
76.9686
 20
-22.6228
 11
76.8273
 21
-22.6228
  0
LINE
  8
0
 10
76.8273
 20
-22.6228
 11
76.6871
 21
-22.6051
  0
LINE
  8
0
 10
76.6871
 20
-22.6051
 11
76.5503
 21
-22.5699
  0
LINE
  8
0
 10
76.5503
 20
-22.5699
 11
76.4189
 21
-22.5179
  0
LINE
  8
0
 10
76.4189
 20
-22.5179
 11
76.2951
 21
-22.4499
  0
LINE
  8
0
 10
76.2951
 20
-22.4499
 11
76.1808
 21
-22.3668
  0
LINE
  8
0
 10
76.1808
 20
-22.3668
 11
76.0778
 21
-22.2701
  0
LINE
  8
0
 10
76.0778
 20
-22.2701
 11
75.9878
 21
-22.1613
  0
LINE
  8
0
 10
75.9878
 20
-22.1613
 11
75.9121
 21
-22.042
  0
LINE
  8
0
 10
75.9121
 20
-22.042
 11
75.8519
 21
-21.9142
  0
LINE
  8
0
 10
75.8519
 20
-21.9142
 11
75.8083
 21
-21.7798
  0
LINE
  8
0
 10
75.8083
 20
-21.7798
 11
75.7818
 21
-21.641
  0
LINE
  8
0
 10
75.7818
 20
-21.641
 11
75.7729
 21
-21.5
  0
LINE
  8
0
 10
77.3479
 20
-42.05
 11
77.3479
 21
-37.2
  0
LINE
  8
0
 10
77.3479
 20
-37.2
 11
87.4479
 21
-37.2
  0
LINE
  8
0
 10
87.4479
 20
-37.2
 11
87.4479
 21
-42.05
  0
LINE
  8
0
 10
87.4479
 20
-42.05
 11
77.3479
 21
-42.05
  0
LINE
  8
0
 10
77.3479
 20
0.199997
 11
77.3479
 21
5.04999
  0
LINE
  8
0
 10
77.3479
 20
5.04999
 11
87.4479
 21
5.04999
  0
LINE
  8
0
 10
87.4479
 20
5.04999
 11
87.4479
 21
0.199997
  0
LINE
  8
0
 10
87.4479
 20
0.199997
 11
77.3479
 21
0.199997
  0
LINE
  8
0
 10
2
 20
-79
 11
2.23656
 21
-82.76
  0
LINE
  8
0
 10
2.23656
 20
-82.76
 11
2.94251
 21
-86.4607
  0
LINE
  8
0
 10
2.94251
 20
-86.4607
 11
4.10671
 21
-90.0437
  0
LINE
  8
0
 10
4.10671
 20
-90.0437
 11
5.7108
 21
-93.4526
  0
LINE
  8
0
 10
5.7108
 20
-93.4526
 11
7.72949
 21
-96.6336
  0
LINE
  8
0
 10
7.72949
 20
-96.6336
 11
10.1309
 21
-99.5364
  0
LINE
  8
0
 10
10.1309
 20
-99.5364
 11
12.8773
 21
-102.115
  0
LINE
  8
0
 10
12.8773
 20
-102.115
 11
15.9252
 21
-104.33
  0
LINE
  8
0
 10
15.9252
 20
-104.33
 11
19.2266
 21
-106.145
  0
LINE
  8
0
 10
19.2266
 20
-106.145
 11
22.7295
 21
-107.532
  0
LINE
  8
0
 10
22.7295
 20
-107.532
 11
26.3786
 21
-108.469
  0
LINE
  8
0
 10
26.3786
 20
-108.469
 11
30.1163
 21
-108.941
  0
LINE
  8
0
 10
30.1163
 20
-108.941
 11
33.8837
 21
-108.941
  0
LINE
  8
0
 10
33.8837
 20
-108.941
 11
37.6214
 21
-108.469
  0
LINE
  8
0
 10
37.6214
 20
-108.469
 11
41.2705
 21
-107.532
  0
LINE
  8
0
 10
41.2705
 20
-107.532
 11
44.7734
 21
-106.145
  0
LINE
  8
0
 10
44.7734
 20
-106.145
 11
48.0748
 21
-104.33
  0
LINE
  8
0
 10
48.0748
 20
-104.33
 11
51.1227
 21
-102.115
  0
LINE
  8
0
 10
51.1227
 20
-102.115
 11
53.8691
 21
-99.5364
  0
LINE
  8
0
 10
53.8691
 20
-99.5364
 11
56.2705
 21
-96.6336
  0
LINE
  8
0
 10
56.2705
 20
-96.6336
 11
58.2892
 21
-93.4526
  0
LINE
  8
0
 10
58.2892
 20
-93.4526
 11
59.8933
 21
-90.0437
  0
LINE
  8
0
 10
59.8933
 20
-90.0437
 11
61.0575
 21
-86.4607
  0
LINE
  8
0
 10
61.0575
 20
-86.4607
 11
61.7634
 21
-82.76
  0
LINE
  8
0
 10
61.7634
 20
-82.76
 11
62
 21
-79
  0
LINE
  8
0
 10
62
 20
-79
 11
61.7634
 21
-75.24
  0
LINE
  8
0
 10
61.7634
 20
-75.24
 11
61.0575
 21
-71.5393
  0
LINE
  8
0
 10
61.0575
 20
-71.5393
 11
59.8933
 21
-67.9563
  0
LINE
  8
0
 10
59.8933
 20
-67.9563
 11
58.2892
 21
-64.5474
  0
LINE
  8
0
 10
58.2892
 20
-64.5474
 11
56.2705
 21
-61.3664
  0
LINE
  8
0
 10
56.2705
 20
-61.3664
 11
53.8691
 21
-58.4636
  0
LINE
  8
0
 10
53.8691
 20
-58.4636
 11
51.1227
 21
-55.8846
  0
LINE
  8
0
 10
51.1227
 20
-55.8846
 11
48.0748
 21
-53.6702
  0
LINE
  8
0
 10
48.0748
 20
-53.6702
 11
44.7734
 21
-51.8552
  0
LINE
  8
0
 10
44.7734
 20
-51.8552
 11
41.2705
 21
-50.4683
  0
LINE
  8
0
 10
41.2705
 20
-50.4683
 11
37.6214
 21
-49.5314
  0
LINE
  8
0
 10
37.6214
 20
-49.5314
 11
33.8837
 21
-49.0592
  0
LINE
  8
0
 10
33.8837
 20
-49.0592
 11
30.1163
 21
-49.0592
  0
LINE
  8
0
 10
30.1163
 20
-49.0592
 11
26.3786
 21
-49.5314
  0
LINE
  8
0
 10
26.3786
 20
-49.5314
 11
22.7295
 21
-50.4683
  0
LINE
  8
0
 10
22.7295
 20
-50.4683
 11
19.2266
 21
-51.8552
  0
LINE
  8
0
 10
19.2266
 20
-51.8552
 11
15.9252
 21
-53.6702
  0
LINE
  8
0
 10
15.9252
 20
-53.6702
 11
12.8773
 21
-55.8846
  0
LINE
  8
0
 10
12.8773
 20
-55.8846
 11
10.1309
 21
-58.4636
  0
LINE
  8
0
 10
10.1309
 20
-58.4636
 11
7.72949
 21
-61.3664
  0
LINE
  8
0
 10
7.72949
 20
-61.3664
 11
5.7108
 21
-64.5474
  0
LINE
  8
0
 10
5.7108
 20
-64.5474
 11
4.10671
 21
-67.9563
  0
LINE
  8
0
 10
4.10671
 20
-67.9563
 11
2.94251
 21
-71.5393
  0
LINE
  8
0
 10
2.94251
 20
-71.5393
 11
2.23656
 21
-75.24
  0
LINE
  8
0
 10
2.23656
 20
-75.24
 11
2
 21
-79
  0
LINE
  8
0
 10
28.8157
 20
-78.8497
 11
28.8219
 21
-78.75
  0
LINE
  8
0
 10
28.8219
 20
-78.75
 11
28.9345
 21
-78.6508
  0
LINE
  8
0
 10
28.9345
 20
-78.6508
 11
28.9368
 21
-78.613
  0
LINE
  8
0
 10
28.9368
 20
-78.613
 11
29.0095
 21
-78.2322
  0
LINE
  8
0
 10
29.0095
 20
-78.2322
 11
29.0212
 21
-78.1962
  0
LINE
  8
0
 10
29.0212
 20
-78.1962
 11
28.9531
 21
-78.0626
  0
LINE
  8
0
 10
28.9531
 20
-78.0626
 11
28.984
 21
-77.9675
  0
LINE
  8
0
 10
28.984
 20
-77.9675
 11
29.1176
 21
-77.8994
  0
LINE
  8
0
 10
29.1176
 20
-77.8994
 11
29.1293
 21
-77.8634
  0
LINE
  8
0
 10
29.1293
 20
-77.8634
 11
29.2944
 21
-77.5126
  0
LINE
  8
0
 10
29.2944
 20
-77.5126
 11
29.3147
 21
-77.4807
  0
LINE
  8
0
 10
29.3147
 20
-77.4807
 11
29.2819
 21
-77.3343
  0
LINE
  8
0
 10
29.2819
 20
-77.3343
 11
29.3355
 21
-77.2499
  0
LINE
  8
0
 10
29.3355
 20
-77.2499
 11
29.4819
 21
-77.2171
  0
LINE
  8
0
 10
29.4819
 20
-77.2171
 11
29.5022
 21
-77.1852
  0
LINE
  8
0
 10
29.5022
 20
-77.1852
 11
29.7493
 21
-76.8865
  0
LINE
  8
0
 10
29.7493
 20
-76.8865
 11
29.7769
 21
-76.8606
  0
LINE
  8
0
 10
29.7769
 20
-76.8606
 11
29.7816
 21
-76.7106
  0
LINE
  8
0
 10
29.7816
 20
-76.7106
 11
29.8545
 21
-76.6422
  0
LINE
  8
0
 10
29.8545
 20
-76.6422
 11
30.0044
 21
-76.6469
  0
LINE
  8
0
 10
30.0044
 20
-76.6469
 11
30.032
 21
-76.621
  0
LINE
  8
0
 10
30.032
 20
-76.621
 11
30.3456
 21
-76.3931
  0
LINE
  8
0
 10
30.3456
 20
-76.3931
 11
30.3788
 21
-76.3749
  0
LINE
  8
0
 10
30.3788
 20
-76.3749
 11
30.4206
 21
-76.2309
  0
LINE
  8
0
 10
30.4206
 20
-76.2309
 11
30.5082
 21
-76.1827
  0
LINE
  8
0
 10
30.5082
 20
-76.1827
 11
30.6523
 21
-76.2246
  0
LINE
  8
0
 10
30.6523
 20
-76.2246
 11
30.6854
 21
-76.2063
  0
LINE
  8
0
 10
30.6854
 20
-76.2063
 11
31.0459
 21
-76.0636
  0
LINE
  8
0
 10
31.0459
 20
-76.0636
 11
31.0825
 21
-76.0542
  0
LINE
  8
0
 10
31.0825
 20
-76.0542
 11
31.1589
 21
-75.9251
  0
LINE
  8
0
 10
31.1589
 20
-75.9251
 11
31.2557
 21
-75.9002
  0
LINE
  8
0
 10
31.2557
 20
-75.9002
 11
31.3849
 21
-75.9766
  0
LINE
  8
0
 10
31.3849
 20
-75.9766
 11
31.4215
 21
-75.9672
  0
LINE
  8
0
 10
31.4215
 20
-75.9672
 11
31.8061
 21
-75.9186
  0
LINE
  8
0
 10
31.8061
 20
-75.9186
 11
31.8439
 21
-75.9186
  0
LINE
  8
0
 10
31.8439
 20
-75.9186
 11
31.95
 21
-75.8125
  0
LINE
  8
0
 10
31.95
 20
-75.8125
 11
32.05
 21
-75.8125
  0
LINE
  8
0
 10
32.05
 20
-75.8125
 11
32.1561
 21
-75.9186
  0
LINE
  8
0
 10
32.1561
 20
-75.9186
 11
32.1939
 21
-75.9186
  0
LINE
  8
0
 10
32.1939
 20
-75.9186
 11
32.5785
 21
-75.9672
  0
LINE
  8
0
 10
32.5785
 20
-75.9672
 11
32.6151
 21
-75.9766
  0
LINE
  8
0
 10
32.6151
 20
-75.9766
 11
32.7443
 21
-75.9002
  0
LINE
  8
0
 10
32.7443
 20
-75.9002
 11
32.8411
 21
-75.9251
  0
LINE
  8
0
 10
32.8411
 20
-75.9251
 11
32.9175
 21
-76.0542
  0
LINE
  8
0
 10
32.9175
 20
-76.0542
 11
32.9541
 21
-76.0636
  0
LINE
  8
0
 10
32.9541
 20
-76.0636
 11
33.3146
 21
-76.2063
  0
LINE
  8
0
 10
33.3146
 20
-76.2063
 11
33.3477
 21
-76.2246
  0
LINE
  8
0
 10
33.3477
 20
-76.2246
 11
33.4918
 21
-76.1827
  0
LINE
  8
0
 10
33.4918
 20
-76.1827
 11
33.5794
 21
-76.2309
  0
LINE
  8
0
 10
33.5794
 20
-76.2309
 11
33.6212
 21
-76.3749
  0
LINE
  8
0
 10
33.6212
 20
-76.3749
 11
33.6544
 21
-76.3931
  0
LINE
  8
0
 10
33.6544
 20
-76.3931
 11
33.968
 21
-76.621
  0
LINE
  8
0
 10
33.968
 20
-76.621
 11
33.9956
 21
-76.6469
  0
LINE
  8
0
 10
33.9956
 20
-76.6469
 11
34.1455
 21
-76.6422
  0
LINE
  8
0
 10
34.1455
 20
-76.6422
 11
34.2184
 21
-76.7106
  0
LINE
  8
0
 10
34.2184
 20
-76.7106
 11
34.2231
 21
-76.8606
  0
LINE
  8
0
 10
34.2231
 20
-76.8606
 11
34.2507
 21
-76.8865
  0
LINE
  8
0
 10
34.2507
 20
-76.8865
 11
34.4978
 21
-77.1852
  0
LINE
  8
0
 10
34.4978
 20
-77.1852
 11
34.5181
 21
-77.2171
  0
LINE
  8
0
 10
34.5181
 20
-77.2171
 11
34.6645
 21
-77.2499
  0
LINE
  8
0
 10
34.6645
 20
-77.2499
 11
34.7181
 21
-77.3343
  0
LINE
  8
0
 10
34.7181
 20
-77.3343
 11
34.6853
 21
-77.4807
  0
LINE
  8
0
 10
34.6853
 20
-77.4807
 11
34.7056
 21
-77.5126
  0
LINE
  8
0
 10
34.7056
 20
-77.5126
 11
34.8707
 21
-77.8634
  0
LINE
  8
0
 10
34.8707
 20
-77.8634
 11
34.8824
 21
-77.8994
  0
LINE
  8
0
 10
34.8824
 20
-77.8994
 11
35.016
 21
-77.9675
  0
LINE
  8
0
 10
35.016
 20
-77.9675
 11
35.0469
 21
-78.0626
  0
LINE
  8
0
 10
35.0469
 20
-78.0626
 11
34.9788
 21
-78.1962
  0
LINE
  8
0
 10
34.9788
 20
-78.1962
 11
34.9905
 21
-78.2322
  0
LINE
  8
0
 10
34.9905
 20
-78.2322
 11
35.0632
 21
-78.613
  0
LINE
  8
0
 10
35.0632
 20
-78.613
 11
35.0655
 21
-78.6508
  0
LINE
  8
0
 10
35.0655
 20
-78.6508
 11
35.1781
 21
-78.75
  0
LINE
  8
0
 10
35.1781
 20
-78.75
 11
35.1843
 21
-78.8497
  0
LINE
  8
0
 10
35.1843
 20
-78.8497
 11
35.0851
 21
-78.9623
  0
LINE
  8
0
 10
35.0851
 20
-78.9623
 11
35.0875
 21
-79
  0
LINE
  8
0
 10
35.0875
 20
-79
 11
35.0632
 21
-79.387
  0
LINE
  8
0
 10
35.0632
 20
-79.387
 11
35.0561
 21
-79.4241
  0
LINE
  8
0
 10
35.0561
 20
-79.4241
 11
35.1404
 21
-79.5482
  0
LINE
  8
0
 10
35.1404
 20
-79.5482
 11
35.1217
 21
-79.6464
  0
LINE
  8
0
 10
35.1217
 20
-79.6464
 11
34.9976
 21
-79.7307
  0
LINE
  8
0
 10
34.9976
 20
-79.7307
 11
34.9905
 21
-79.7678
  0
LINE
  8
0
 10
34.9905
 20
-79.7678
 11
34.8707
 21
-80.1366
  0
LINE
  8
0
 10
34.8707
 20
-80.1366
 11
34.8546
 21
-80.1708
  0
LINE
  8
0
 10
34.8546
 20
-80.1708
 11
34.9054
 21
-80.3119
  0
LINE
  8
0
 10
34.9054
 20
-80.3119
 11
34.8628
 21
-80.4024
  0
LINE
  8
0
 10
34.8628
 20
-80.4024
 11
34.7217
 21
-80.4532
  0
LINE
  8
0
 10
34.7217
 20
-80.4532
 11
34.7056
 21
-80.4874
  0
LINE
  8
0
 10
34.7056
 20
-80.4874
 11
34.4978
 21
-80.8148
  0
LINE
  8
0
 10
34.4978
 20
-80.8148
 11
34.4737
 21
-80.8439
  0
LINE
  8
0
 10
34.4737
 20
-80.8439
 11
34.4879
 21
-80.9933
  0
LINE
  8
0
 10
34.4879
 20
-80.9933
 11
34.4241
 21
-81.0703
  0
LINE
  8
0
 10
34.4241
 20
-81.0703
 11
34.2748
 21
-81.0844
  0
LINE
  8
0
 10
34.2748
 20
-81.0844
 11
34.2507
 21
-81.1135
  0
LINE
  8
0
 10
34.2507
 20
-81.1135
 11
33.968
 21
-81.379
  0
LINE
  8
0
 10
33.968
 20
-81.379
 11
33.9375
 21
-81.4012
  0
LINE
  8
0
 10
33.9375
 20
-81.4012
 11
33.914
 21
-81.5493
  0
LINE
  8
0
 10
33.914
 20
-81.5493
 11
33.8331
 21
-81.6081
  0
LINE
  8
0
 10
33.8331
 20
-81.6081
 11
33.6849
 21
-81.5846
  0
LINE
  8
0
 10
33.6849
 20
-81.5846
 11
33.6544
 21
-81.6069
  0
LINE
  8
0
 10
33.6544
 20
-81.6069
 11
33.3146
 21
-81.7937
  0
LINE
  8
0
 10
33.3146
 20
-81.7937
 11
33.2795
 21
-81.8076
  0
LINE
  8
0
 10
33.2795
 20
-81.8076
 11
33.2199
 21
-81.9452
  0
LINE
  8
0
 10
33.2199
 20
-81.9452
 11
33.1269
 21
-81.9821
  0
LINE
  8
0
 10
33.1269
 20
-81.9821
 11
32.9892
 21
-81.9225
  0
LINE
  8
0
 10
32.9892
 20
-81.9225
 11
32.9541
 21
-81.9364
  0
LINE
  8
0
 10
32.9541
 20
-81.9364
 11
32.5785
 21
-82.0328
  0
LINE
  8
0
 10
32.5785
 20
-82.0328
 11
32.541
 21
-82.0375
  0
LINE
  8
0
 10
32.541
 20
-82.0375
 11
32.4491
 21
-82.1561
  0
LINE
  8
0
 10
32.4491
 20
-82.1561
 11
32.3499
 21
-82.1686
  0
LINE
  8
0
 10
32.3499
 20
-82.1686
 11
32.2314
 21
-82.0767
  0
LINE
  8
0
 10
32.2314
 20
-82.0767
 11
32.1939
 21
-82.0814
  0
LINE
  8
0
 10
32.1939
 20
-82.0814
 11
31.8061
 21
-82.0814
  0
LINE
  8
0
 10
31.8061
 20
-82.0814
 11
31.7686
 21
-82.0767
  0
LINE
  8
0
 10
31.7686
 20
-82.0767
 11
31.6501
 21
-82.1686
  0
LINE
  8
0
 10
31.6501
 20
-82.1686
 11
31.5509
 21
-82.1561
  0
LINE
  8
0
 10
31.5509
 20
-82.1561
 11
31.459
 21
-82.0375
  0
LINE
  8
0
 10
31.459
 20
-82.0375
 11
31.4215
 21
-82.0328
  0
LINE
  8
0
 10
31.4215
 20
-82.0328
 11
31.0459
 21
-81.9364
  0
LINE
  8
0
 10
31.0459
 20
-81.9364
 11
31.0108
 21
-81.9225
  0
LINE
  8
0
 10
31.0108
 20
-81.9225
 11
30.8731
 21
-81.9821
  0
LINE
  8
0
 10
30.8731
 20
-81.9821
 11
30.7801
 21
-81.9452
  0
LINE
  8
0
 10
30.7801
 20
-81.9452
 11
30.7205
 21
-81.8076
  0
LINE
  8
0
 10
30.7205
 20
-81.8076
 11
30.6854
 21
-81.7937
  0
LINE
  8
0
 10
30.6854
 20
-81.7937
 11
30.3456
 21
-81.6069
  0
LINE
  8
0
 10
30.3456
 20
-81.6069
 11
30.3151
 21
-81.5846
  0
LINE
  8
0
 10
30.3151
 20
-81.5846
 11
30.1669
 21
-81.6081
  0
LINE
  8
0
 10
30.1669
 20
-81.6081
 11
30.086
 21
-81.5493
  0
LINE
  8
0
 10
30.086
 20
-81.5493
 11
30.0625
 21
-81.4012
  0
LINE
  8
0
 10
30.0625
 20
-81.4012
 11
30.032
 21
-81.379
  0
LINE
  8
0
 10
30.032
 20
-81.379
 11
29.7493
 21
-81.1135
  0
LINE
  8
0
 10
29.7493
 20
-81.1135
 11
29.7252
 21
-81.0844
  0
LINE
  8
0
 10
29.7252
 20
-81.0844
 11
29.5759
 21
-81.0703
  0
LINE
  8
0
 10
29.5759
 20
-81.0703
 11
29.5121
 21
-80.9933
  0
LINE
  8
0
 10
29.5121
 20
-80.9933
 11
29.5263
 21
-80.8439
  0
LINE
  8
0
 10
29.5263
 20
-80.8439
 11
29.5022
 21
-80.8148
  0
LINE
  8
0
 10
29.5022
 20
-80.8148
 11
29.2944
 21
-80.4874
  0
LINE
  8
0
 10
29.2944
 20
-80.4874
 11
29.2783
 21
-80.4532
  0
LINE
  8
0
 10
29.2783
 20
-80.4532
 11
29.1372
 21
-80.4024
  0
LINE
  8
0
 10
29.1372
 20
-80.4024
 11
29.0946
 21
-80.3119
  0
LINE
  8
0
 10
29.0946
 20
-80.3119
 11
29.1454
 21
-80.1708
  0
LINE
  8
0
 10
29.1454
 20
-80.1708
 11
29.1293
 21
-80.1366
  0
LINE
  8
0
 10
29.1293
 20
-80.1366
 11
29.0095
 21
-79.7678
  0
LINE
  8
0
 10
29.0095
 20
-79.7678
 11
29.0024
 21
-79.7307
  0
LINE
  8
0
 10
29.0024
 20
-79.7307
 11
28.8783
 21
-79.6464
  0
LINE
  8
0
 10
28.8783
 20
-79.6464
 11
28.8596
 21
-79.5482
  0
LINE
  8
0
 10
28.8596
 20
-79.5482
 11
28.9439
 21
-79.4241
  0
LINE
  8
0
 10
28.9439
 20
-79.4241
 11
28.9368
 21
-79.387
  0
LINE
  8
0
 10
28.9368
 20
-79.387
 11
28.9125
 21
-79
  0
LINE
  8
0
 10
28.9125
 20
-79
 11
28.9149
 21
-78.9623
  0
LINE
  8
0
 10
28.9149
 20
-78.9623
 11
28.8157
 21
-78.8497
  0
LINE
  8
0
 10
30.875
 20
-94
 11
30.875
 21
-86
  0
LINE
  8
0
 10
30.875
 20
-86
 11
30.8839
 21
-85.859
  0
LINE
  8
0
 10
30.8839
 20
-85.859
 11
30.9103
 21
-85.7202
  0
LINE
  8
0
 10
30.9103
 20
-85.7202
 11
30.954
 21
-85.5859
  0
LINE
  8
0
 10
30.954
 20
-85.5859
 11
31.0142
 21
-85.458
  0
LINE
  8
0
 10
31.0142
 20
-85.458
 11
31.0899
 21
-85.3387
  0
LINE
  8
0
 10
31.0899
 20
-85.3387
 11
31.1799
 21
-85.2299
  0
LINE
  8
0
 10
31.1799
 20
-85.2299
 11
31.2829
 21
-85.1332
  0
LINE
  8
0
 10
31.2829
 20
-85.1332
 11
31.3972
 21
-85.0501
  0
LINE
  8
0
 10
31.3972
 20
-85.0501
 11
31.521
 21
-84.9821
  0
LINE
  8
0
 10
31.521
 20
-84.9821
 11
31.6524
 21
-84.9301
  0
LINE
  8
0
 10
31.6524
 20
-84.9301
 11
31.7892
 21
-84.8949
  0
LINE
  8
0
 10
31.7892
 20
-84.8949
 11
31.9294
 21
-84.8772
  0
LINE
  8
0
 10
31.9294
 20
-84.8772
 11
32.0706
 21
-84.8772
  0
LINE
  8
0
 10
32.0706
 20
-84.8772
 11
32.2108
 21
-84.8949
  0
LINE
  8
0
 10
32.2108
 20
-84.8949
 11
32.3476
 21
-84.9301
  0
LINE
  8
0
 10
32.3476
 20
-84.9301
 11
32.479
 21
-84.9821
  0
LINE
  8
0
 10
32.479
 20
-84.9821
 11
32.6028
 21
-85.0501
  0
LINE
  8
0
 10
32.6028
 20
-85.0501
 11
32.7171
 21
-85.1332
  0
LINE
  8
0
 10
32.7171
 20
-85.1332
 11
32.8201
 21
-85.2299
  0
LINE
  8
0
 10
32.8201
 20
-85.2299
 11
32.9101
 21
-85.3387
  0
LINE
  8
0
 10
32.9101
 20
-85.3387
 11
32.9858
 21
-85.458
  0
LINE
  8
0
 10
32.9858
 20
-85.458
 11
33.046
 21
-85.5859
  0
LINE
  8
0
 10
33.046
 20
-85.5859
 11
33.0897
 21
-85.7202
  0
LINE
  8
0
 10
33.0897
 20
-85.7202
 11
33.1161
 21
-85.859
  0
LINE
  8
0
 10
33.1161
 20
-85.859
 11
33.125
 21
-86
  0
LINE
  8
0
 10
33.125
 20
-86
 11
33.125
 21
-94
  0
LINE
  8
0
 10
33.125
 20
-94
 11
33.1161
 21
-94.141
  0
LINE
  8
0
 10
33.1161
 20
-94.141
 11
33.0897
 21
-94.2798
  0
LINE
  8
0
 10
33.0897
 20
-94.2798
 11
33.046
 21
-94.4141
  0
LINE
  8
0
 10
33.046
 20
-94.4141
 11
32.9858
 21
-94.542
  0
LINE
  8
0
 10
32.9858
 20
-94.542
 11
32.9101
 21
-94.6613
  0
LINE
  8
0
 10
32.9101
 20
-94.6613
 11
32.8201
 21
-94.7701
  0
LINE
  8
0
 10
32.8201
 20
-94.7701
 11
32.7171
 21
-94.8668
  0
LINE
  8
0
 10
32.7171
 20
-94.8668
 11
32.6028
 21
-94.9499
  0
LINE
  8
0
 10
32.6028
 20
-94.9499
 11
32.479
 21
-95.0179
  0
LINE
  8
0
 10
32.479
 20
-95.0179
 11
32.3476
 21
-95.0699
  0
LINE
  8
0
 10
32.3476
 20
-95.0699
 11
32.2108
 21
-95.1051
  0
LINE
  8
0
 10
32.2108
 20
-95.1051
 11
32.0706
 21
-95.1228
  0
LINE
  8
0
 10
32.0706
 20
-95.1228
 11
31.9294
 21
-95.1228
  0
LINE
  8
0
 10
31.9294
 20
-95.1228
 11
31.7892
 21
-95.1051
  0
LINE
  8
0
 10
31.7892
 20
-95.1051
 11
31.6524
 21
-95.0699
  0
LINE
  8
0
 10
31.6524
 20
-95.0699
 11
31.521
 21
-95.0179
  0
LINE
  8
0
 10
31.521
 20
-95.0179
 11
31.3972
 21
-94.9499
  0
LINE
  8
0
 10
31.3972
 20
-94.9499
 11
31.2829
 21
-94.8668
  0
LINE
  8
0
 10
31.2829
 20
-94.8668
 11
31.1799
 21
-94.7701
  0
LINE
  8
0
 10
31.1799
 20
-94.7701
 11
31.0899
 21
-94.6613
  0
LINE
  8
0
 10
31.0899
 20
-94.6613
 11
31.0142
 21
-94.542
  0
LINE
  8
0
 10
31.0142
 20
-94.542
 11
30.954
 21
-94.4141
  0
LINE
  8
0
 10
30.954
 20
-94.4141
 11
30.9103
 21
-94.2798
  0
LINE
  8
0
 10
30.9103
 20
-94.2798
 11
30.8839
 21
-94.141
  0
LINE
  8
0
 10
30.8839
 20
-94.141
 11
30.875
 21
-94
  0
LINE
  8
0
 10
30.875
 20
-72
 11
30.875
 21
-64
  0
LINE
  8
0
 10
30.875
 20
-64
 11
30.8839
 21
-63.859
  0
LINE
  8
0
 10
30.8839
 20
-63.859
 11
30.9103
 21
-63.7202
  0
LINE
  8
0
 10
30.9103
 20
-63.7202
 11
30.954
 21
-63.5859
  0
LINE
  8
0
 10
30.954
 20
-63.5859
 11
31.0142
 21
-63.458
  0
LINE
  8
0
 10
31.0142
 20
-63.458
 11
31.0899
 21
-63.3387
  0
LINE
  8
0
 10
31.0899
 20
-63.3387
 11
31.1799
 21
-63.2299
  0
LINE
  8
0
 10
31.1799
 20
-63.2299
 11
31.2829
 21
-63.1332
  0
LINE
  8
0
 10
31.2829
 20
-63.1332
 11
31.3972
 21
-63.0501
  0
LINE
  8
0
 10
31.3972
 20
-63.0501
 11
31.521
 21
-62.9821
  0
LINE
  8
0
 10
31.521
 20
-62.9821
 11
31.6524
 21
-62.9301
  0
LINE
  8
0
 10
31.6524
 20
-62.9301
 11
31.7892
 21
-62.8949
  0
LINE
  8
0
 10
31.7892
 20
-62.8949
 11
31.9294
 21
-62.8772
  0
LINE
  8
0
 10
31.9294
 20
-62.8772
 11
32.0706
 21
-62.8772
  0
LINE
  8
0
 10
32.0706
 20
-62.8772
 11
32.2108
 21
-62.8949
  0
LINE
  8
0
 10
32.2108
 20
-62.8949
 11
32.3476
 21
-62.9301
  0
LINE
  8
0
 10
32.3476
 20
-62.9301
 11
32.479
 21
-62.9821
  0
LINE
  8
0
 10
32.479
 20
-62.9821
 11
32.6028
 21
-63.0501
  0
LINE
  8
0
 10
32.6028
 20
-63.0501
 11
32.7171
 21
-63.1332
  0
LINE
  8
0
 10
32.7171
 20
-63.1332
 11
32.8201
 21
-63.2299
  0
LINE
  8
0
 10
32.8201
 20
-63.2299
 11
32.9101
 21
-63.3387
  0
LINE
  8
0
 10
32.9101
 20
-63.3387
 11
32.9858
 21
-63.458
  0
LINE
  8
0
 10
32.9858
 20
-63.458
 11
33.046
 21
-63.5859
  0
LINE
  8
0
 10
33.046
 20
-63.5859
 11
33.0897
 21
-63.7202
  0
LINE
  8
0
 10
33.0897
 20
-63.7202
 11
33.1161
 21
-63.859
  0
LINE
  8
0
 10
33.1161
 20
-63.859
 11
33.125
 21
-64
  0
LINE
  8
0
 10
33.125
 20
-64
 11
33.125
 21
-72
  0
LINE
  8
0
 10
33.125
 20
-72
 11
33.1161
 21
-72.141
  0
LINE
  8
0
 10
33.1161
 20
-72.141
 11
33.0897
 21
-72.2798
  0
LINE
  8
0
 10
33.0897
 20
-72.2798
 11
33.046
 21
-72.4141
  0
LINE
  8
0
 10
33.046
 20
-72.4141
 11
32.9858
 21
-72.542
  0
LINE
  8
0
 10
32.9858
 20
-72.542
 11
32.9101
 21
-72.6613
  0
LINE
  8
0
 10
32.9101
 20
-72.6613
 11
32.8201
 21
-72.7701
  0
LINE
  8
0
 10
32.8201
 20
-72.7701
 11
32.7171
 21
-72.8668
  0
LINE
  8
0
 10
32.7171
 20
-72.8668
 11
32.6028
 21
-72.9499
  0
LINE
  8
0
 10
32.6028
 20
-72.9499
 11
32.479
 21
-73.0179
  0
LINE
  8
0
 10
32.479
 20
-73.0179
 11
32.3476
 21
-73.0699
  0
LINE
  8
0
 10
32.3476
 20
-73.0699
 11
32.2108
 21
-73.1051
  0
LINE
  8
0
 10
32.2108
 20
-73.1051
 11
32.0706
 21
-73.1228
  0
LINE
  8
0
 10
32.0706
 20
-73.1228
 11
31.9294
 21
-73.1228
  0
LINE
  8
0
 10
31.9294
 20
-73.1228
 11
31.7892
 21
-73.1051
  0
LINE
  8
0
 10
31.7892
 20
-73.1051
 11
31.6524
 21
-73.0699
  0
LINE
  8
0
 10
31.6524
 20
-73.0699
 11
31.521
 21
-73.0179
  0
LINE
  8
0
 10
31.521
 20
-73.0179
 11
31.3972
 21
-72.9499
  0
LINE
  8
0
 10
31.3972
 20
-72.9499
 11
31.2829
 21
-72.8668
  0
LINE
  8
0
 10
31.2829
 20
-72.8668
 11
31.1799
 21
-72.7701
  0
LINE
  8
0
 10
31.1799
 20
-72.7701
 11
31.0899
 21
-72.6613
  0
LINE
  8
0
 10
31.0899
 20
-72.6613
 11
31.0142
 21
-72.542
  0
LINE
  8
0
 10
31.0142
 20
-72.542
 11
30.954
 21
-72.4141
  0
LINE
  8
0
 10
30.954
 20
-72.4141
 11
30.9103
 21
-72.2798
  0
LINE
  8
0
 10
30.9103
 20
-72.2798
 11
30.8839
 21
-72.141
  0
LINE
  8
0
 10
30.8839
 20
-72.141
 11
30.875
 21
-72
  0
LINE
  8
0
 10
2
 20
59
 11
92.3979
 21
59
  0
LINE
  8
0
 10
92.3979
 20
59
 11
88.3044
 21
82.5737
  0
LINE
  8
0
 10
88.3044
 20
82.5737
 11
92.8966
 21
83.3834
  0
LINE
  8
0
 10
92.8966
 20
83.3834
 11
91.1601
 21
93.2315
  0
LINE
  8
0
 10
91.1601
 20
93.2315
 11
86.5935
 21
92.4263
  0
LINE
  8
0
 10
86.5935
 20
92.4263
 11
82.5
 21
116
  0
LINE
  8
0
 10
82.5
 20
116
 11
2
 21
116
  0
LINE
  8
0
 10
2
 20
116
 11
2
 21
59
  0
LINE
  8
0
 10
6.95001
 20
63.95
 11
6.95001
 21
68.8
  0
LINE
  8
0
 10
6.95001
 20
68.8
 11
17.05
 21
68.8
  0
LINE
  8
0
 10
17.05
 20
68.8
 11
17.05
 21
63.95
  0
LINE
  8
0
 10
17.05
 20
63.95
 11
6.95001
 21
63.95
  0
LINE
  8
0
 10
6.95001
 20
106.2
 11
6.95001
 21
111.05
  0
LINE
  8
0
 10
6.95001
 20
111.05
 11
17.05
 21
111.05
  0
LINE
  8
0
 10
17.05
 20
111.05
 11
17.05
 21
106.2
  0
LINE
  8
0
 10
17.05
 20
106.2
 11
6.95001
 21
106.2
  0
LINE
  8
0
 10
16.375
 20
74.5
 11
16.3839
 21
74.641
  0
LINE
  8
0
 10
16.3839
 20
74.641
 11
16.4104
 21
74.7798
  0
LINE
  8
0
 10
16.4104
 20
74.7798
 11
16.454
 21
74.9141
  0
LINE
  8
0
 10
16.454
 20
74.9141
 11
16.5142
 21
75.042
  0
LINE
  8
0
 10
16.5142
 20
75.042
 11
16.5899
 21
75.1613
  0
LINE
  8
0
 10
16.5899
 20
75.1613
 11
16.6799
 21
75.2701
  0
LINE
  8
0
 10
16.6799
 20
75.2701
 11
16.7829
 21
75.3668
  0
LINE
  8
0
 10
16.7829
 20
75.3668
 11
16.8972
 21
75.4499
  0
LINE
  8
0
 10
16.8972
 20
75.4499
 11
17.021
 21
75.5179
  0
LINE
  8
0
 10
17.021
 20
75.5179
 11
17.1524
 21
75.5699
  0
LINE
  8
0
 10
17.1524
 20
75.5699
 11
17.2892
 21
75.6051
  0
LINE
  8
0
 10
17.2892
 20
75.6051
 11
17.4294
 21
75.6228
  0
LINE
  8
0
 10
17.4294
 20
75.6228
 11
17.5706
 21
75.6228
  0
LINE
  8
0
 10
17.5706
 20
75.6228
 11
17.7108
 21
75.6051
  0
LINE
  8
0
 10
17.7108
 20
75.6051
 11
17.8477
 21
75.5699
  0
LINE
  8
0
 10
17.8477
 20
75.5699
 11
17.979
 21
75.5179
  0
LINE
  8
0
 10
17.979
 20
75.5179
 11
18.1028
 21
75.4499
  0
LINE
  8
0
 10
18.1028
 20
75.4499
 11
18.2171
 21
75.3668
  0
LINE
  8
0
 10
18.2171
 20
75.3668
 11
18.3201
 21
75.2701
  0
LINE
  8
0
 10
18.3201
 20
75.2701
 11
18.4102
 21
75.1613
  0
LINE
  8
0
 10
18.4102
 20
75.1613
 11
18.4859
 21
75.042
  0
LINE
  8
0
 10
18.4859
 20
75.042
 11
18.546
 21
74.9141
  0
LINE
  8
0
 10
18.546
 20
74.9141
 11
18.5897
 21
74.7798
  0
LINE
  8
0
 10
18.5897
 20
74.7798
 11
18.6161
 21
74.641
  0
LINE
  8
0
 10
18.6161
 20
74.641
 11
18.625
 21
74.5
  0
LINE
  8
0
 10
18.625
 20
74.5
 11
18.6161
 21
74.359
  0
LINE
  8
0
 10
18.6161
 20
74.359
 11
18.5897
 21
74.2202
  0
LINE
  8
0
 10
18.5897
 20
74.2202
 11
18.546
 21
74.0858
  0
LINE
  8
0
 10
18.546
 20
74.0858
 11
18.4859
 21
73.958
  0
LINE
  8
0
 10
18.4859
 20
73.958
 11
18.4102
 21
73.8387
  0
LINE
  8
0
 10
18.4102
 20
73.8387
 11
18.3201
 21
73.7299
  0
LINE
  8
0
 10
18.3201
 20
73.7299
 11
18.2171
 21
73.6332
  0
LINE
  8
0
 10
18.2171
 20
73.6332
 11
18.1028
 21
73.5501
  0
LINE
  8
0
 10
18.1028
 20
73.5501
 11
17.979
 21
73.4821
  0
LINE
  8
0
 10
17.979
 20
73.4821
 11
17.8477
 21
73.4301
  0
LINE
  8
0
 10
17.8477
 20
73.4301
 11
17.7108
 21
73.3949
  0
LINE
  8
0
 10
17.7108
 20
73.3949
 11
17.5706
 21
73.3772
  0
LINE
  8
0
 10
17.5706
 20
73.3772
 11
17.4294
 21
73.3772
  0
LINE
  8
0
 10
17.4294
 20
73.3772
 11
17.2892
 21
73.3949
  0
LINE
  8
0
 10
17.2892
 20
73.3949
 11
17.1524
 21
73.4301
  0
LINE
  8
0
 10
17.1524
 20
73.4301
 11
17.021
 21
73.4821
  0
LINE
  8
0
 10
17.021
 20
73.4821
 11
16.8972
 21
73.5501
  0
LINE
  8
0
 10
16.8972
 20
73.5501
 11
16.7829
 21
73.6332
  0
LINE
  8
0
 10
16.7829
 20
73.6332
 11
16.6799
 21
73.7299
  0
LINE
  8
0
 10
16.6799
 20
73.7299
 11
16.5899
 21
73.8387
  0
LINE
  8
0
 10
16.5899
 20
73.8387
 11
16.5142
 21
73.958
  0
LINE
  8
0
 10
16.5142
 20
73.958
 11
16.454
 21
74.0858
  0
LINE
  8
0
 10
16.454
 20
74.0858
 11
16.4104
 21
74.2202
  0
LINE
  8
0
 10
16.4104
 20
74.2202
 11
16.3839
 21
74.359
  0
LINE
  8
0
 10
16.3839
 20
74.359
 11
16.375
 21
74.5
  0
LINE
  8
0
 10
16.375
 20
84.5
 11
16.3839
 21
84.641
  0
LINE
  8
0
 10
16.3839
 20
84.641
 11
16.4104
 21
84.7798
  0
LINE
  8
0
 10
16.4104
 20
84.7798
 11
16.454
 21
84.9141
  0
LINE
  8
0
 10
16.454
 20
84.9141
 11
16.5142
 21
85.042
  0
LINE
  8
0
 10
16.5142
 20
85.042
 11
16.5899
 21
85.1613
  0
LINE
  8
0
 10
16.5899
 20
85.1613
 11
16.6799
 21
85.2701
  0
LINE
  8
0
 10
16.6799
 20
85.2701
 11
16.7829
 21
85.3668
  0
LINE
  8
0
 10
16.7829
 20
85.3668
 11
16.8972
 21
85.4499
  0
LINE
  8
0
 10
16.8972
 20
85.4499
 11
17.021
 21
85.5179
  0
LINE
  8
0
 10
17.021
 20
85.5179
 11
17.1524
 21
85.5699
  0
LINE
  8
0
 10
17.1524
 20
85.5699
 11
17.2892
 21
85.6051
  0
LINE
  8
0
 10
17.2892
 20
85.6051
 11
17.4294
 21
85.6228
  0
LINE
  8
0
 10
17.4294
 20
85.6228
 11
17.5706
 21
85.6228
  0
LINE
  8
0
 10
17.5706
 20
85.6228
 11
17.7108
 21
85.6051
  0
LINE
  8
0
 10
17.7108
 20
85.6051
 11
17.8477
 21
85.5699
  0
LINE
  8
0
 10
17.8477
 20
85.5699
 11
17.979
 21
85.5179
  0
LINE
  8
0
 10
17.979
 20
85.5179
 11
18.1028
 21
85.4499
  0
LINE
  8
0
 10
18.1028
 20
85.4499
 11
18.2171
 21
85.3668
  0
LINE
  8
0
 10
18.2171
 20
85.3668
 11
18.3201
 21
85.2701
  0
LINE
  8
0
 10
18.3201
 20
85.2701
 11
18.4102
 21
85.1613
  0
LINE
  8
0
 10
18.4102
 20
85.1613
 11
18.4859
 21
85.042
  0
LINE
  8
0
 10
18.4859
 20
85.042
 11
18.546
 21
84.9141
  0
LINE
  8
0
 10
18.546
 20
84.9141
 11
18.5897
 21
84.7798
  0
LINE
  8
0
 10
18.5897
 20
84.7798
 11
18.6161
 21
84.641
  0
LINE
  8
0
 10
18.6161
 20
84.641
 11
18.625
 21
84.5
  0
LINE
  8
0
 10
18.625
 20
84.5
 11
18.6161
 21
84.359
  0
LINE
  8
0
 10
18.6161
 20
84.359
 11
18.5897
 21
84.2202
  0
LINE
  8
0
 10
18.5897
 20
84.2202
 11
18.546
 21
84.0858
  0
LINE
  8
0
 10
18.546
 20
84.0858
 11
18.4859
 21
83.958
  0
LINE
  8
0
 10
18.4859
 20
83.958
 11
18.4102
 21
83.8387
  0
LINE
  8
0
 10
18.4102
 20
83.8387
 11
18.3201
 21
83.7299
  0
LINE
  8
0
 10
18.3201
 20
83.7299
 11
18.2171
 21
83.6332
  0
LINE
  8
0
 10
18.2171
 20
83.6332
 11
18.1028
 21
83.5501
  0
LINE
  8
0
 10
18.1028
 20
83.5501
 11
17.979
 21
83.4821
  0
LINE
  8
0
 10
17.979
 20
83.4821
 11
17.8477
 21
83.4301
  0
LINE
  8
0
 10
17.8477
 20
83.4301
 11
17.7108
 21
83.3949
  0
LINE
  8
0
 10
17.7108
 20
83.3949
 11
17.5706
 21
83.3772
  0
LINE
  8
0
 10
17.5706
 20
83.3772
 11
17.4294
 21
83.3772
  0
LINE
  8
0
 10
17.4294
 20
83.3772
 11
17.2892
 21
83.3949
  0
LINE
  8
0
 10
17.2892
 20
83.3949
 11
17.1524
 21
83.4301
  0
LINE
  8
0
 10
17.1524
 20
83.4301
 11
17.021
 21
83.4821
  0
LINE
  8
0
 10
17.021
 20
83.4821
 11
16.8972
 21
83.5501
  0
LINE
  8
0
 10
16.8972
 20
83.5501
 11
16.7829
 21
83.6332
  0
LINE
  8
0
 10
16.7829
 20
83.6332
 11
16.6799
 21
83.7299
  0
LINE
  8
0
 10
16.6799
 20
83.7299
 11
16.5899
 21
83.8387
  0
LINE
  8
0
 10
16.5899
 20
83.8387
 11
16.5142
 21
83.958
  0
LINE
  8
0
 10
16.5142
 20
83.958
 11
16.454
 21
84.0858
  0
LINE
  8
0
 10
16.454
 20
84.0858
 11
16.4104
 21
84.2202
  0
LINE
  8
0
 10
16.4104
 20
84.2202
 11
16.3839
 21
84.359
  0
LINE
  8
0
 10
16.3839
 20
84.359
 11
16.375
 21
84.5
  0
LINE
  8
0
 10
16.5
 20
79.5
 11
16.5237
 21
79.876
  0
LINE
  8
0
 10
16.5237
 20
79.876
 11
16.5943
 21
80.2461
  0
LINE
  8
0
 10
16.5943
 20
80.2461
 11
16.7107
 21
80.6044
  0
LINE
  8
0
 10
16.7107
 20
80.6044
 11
16.8711
 21
80.9453
  0
LINE
  8
0
 10
16.8711
 20
80.9453
 11
17.073
 21
81.2634
  0
LINE
  8
0
 10
17.073
 20
81.2634
 11
17.3131
 21
81.5536
  0
LINE
  8
0
 10
17.3131
 20
81.5536
 11
17.5877
 21
81.8115
  0
LINE
  8
0
 10
17.5877
 20
81.8115
 11
17.8925
 21
82.033
  0
LINE
  8
0
 10
17.8925
 20
82.033
 11
18.2227
 21
82.2145
  0
LINE
  8
0
 10
18.2227
 20
82.2145
 11
18.573
 21
82.3532
  0
LINE
  8
0
 10
18.573
 20
82.3532
 11
18.9379
 21
82.4469
  0
LINE
  8
0
 10
18.9379
 20
82.4469
 11
19.3116
 21
82.4941
  0
LINE
  8
0
 10
19.3116
 20
82.4941
 11
20
 21
82.5
  0
LINE
  8
0
 10
20
 20
82.5
 11
22
 21
82.5
  0
LINE
  8
0
 10
22
 20
82.5
 11
22
 21
90.25
  0
LINE
  8
0
 10
22
 20
90.25
 11
64.5
 21
90.25
  0
LINE
  8
0
 10
64.5
 20
90.25
 11
64.5
 21
68.75
  0
LINE
  8
0
 10
64.5
 20
68.75
 11
22
 21
68.75
  0
LINE
  8
0
 10
22
 20
68.75
 11
22
 21
76.5
  0
LINE
  8
0
 10
22
 20
76.5
 11
20
 21
76.5
  0
LINE
  8
0
 10
20
 20
76.5
 11
19.3116
 21
76.5059
  0
LINE
  8
0
 10
19.3116
 20
76.5059
 11
18.9379
 21
76.5531
  0
LINE
  8
0
 10
18.9379
 20
76.5531
 11
18.573
 21
76.6468
  0
LINE
  8
0
 10
18.573
 20
76.6468
 11
18.2227
 21
76.7855
  0
LINE
  8
0
 10
18.2227
 20
76.7855
 11
17.8925
 21
76.967
  0
LINE
  8
0
 10
17.8925
 20
76.967
 11
17.5877
 21
77.1884
  0
LINE
  8
0
 10
17.5877
 20
77.1884
 11
17.3131
 21
77.4464
  0
LINE
  8
0
 10
17.3131
 20
77.4464
 11
17.073
 21
77.7366
  0
LINE
  8
0
 10
17.073
 20
77.7366
 11
16.8711
 21
78.0547
  0
LINE
  8
0
 10
16.8711
 20
78.0547
 11
16.7107
 21
78.3956
  0
LINE
  8
0
 10
16.7107
 20
78.3956
 11
16.5943
 21
78.7539
  0
LINE
  8
0
 10
16.5943
 20
78.7539
 11
16.5237
 21
79.124
  0
LINE
  8
0
 10
16.5237
 20
79.124
 11
16.5
 21
79.5
  0
LINE
  8
0
 10
67.45
 20
106.2
 11
67.45
 21
111.05
  0
LINE
  8
0
 10
67.45
 20
111.05
 11
77.55
 21
111.05
  0
LINE
  8
0
 10
77.55
 20
111.05
 11
77.55
 21
106.2
  0
LINE
  8
0
 10
77.55
 20
106.2
 11
67.45
 21
106.2
  0
LINE
  8
0
 10
67.875
 20
74.5
 11
67.8839
 21
74.641
  0
LINE
  8
0
 10
67.8839
 20
74.641
 11
67.9103
 21
74.7798
  0
LINE
  8
0
 10
67.9103
 20
74.7798
 11
67.954
 21
74.9141
  0
LINE
  8
0
 10
67.954
 20
74.9141
 11
68.0141
 21
75.042
  0
LINE
  8
0
 10
68.0141
 20
75.042
 11
68.0898
 21
75.1613
  0
LINE
  8
0
 10
68.0898
 20
75.1613
 11
68.1799
 21
75.2701
  0
LINE
  8
0
 10
68.1799
 20
75.2701
 11
68.2829
 21
75.3668
  0
LINE
  8
0
 10
68.2829
 20
75.3668
 11
68.3972
 21
75.4499
  0
LINE
  8
0
 10
68.3972
 20
75.4499
 11
68.521
 21
75.5179
  0
LINE
  8
0
 10
68.521
 20
75.5179
 11
68.6523
 21
75.5699
  0
LINE
  8
0
 10
68.6523
 20
75.5699
 11
68.7892
 21
75.6051
  0
LINE
  8
0
 10
68.7892
 20
75.6051
 11
68.9294
 21
75.6228
  0
LINE
  8
0
 10
68.9294
 20
75.6228
 11
69.0706
 21
75.6228
  0
LINE
  8
0
 10
69.0706
 20
75.6228
 11
69.2108
 21
75.6051
  0
LINE
  8
0
 10
69.2108
 20
75.6051
 11
69.3476
 21
75.5699
  0
LINE
  8
0
 10
69.3476
 20
75.5699
 11
69.479
 21
75.5179
  0
LINE
  8
0
 10
69.479
 20
75.5179
 11
69.6028
 21
75.4499
  0
LINE
  8
0
 10
69.6028
 20
75.4499
 11
69.7171
 21
75.3668
  0
LINE
  8
0
 10
69.7171
 20
75.3668
 11
69.8201
 21
75.2701
  0
LINE
  8
0
 10
69.8201
 20
75.2701
 11
69.9101
 21
75.1613
  0
LINE
  8
0
 10
69.9101
 20
75.1613
 11
69.9858
 21
75.042
  0
LINE
  8
0
 10
69.9858
 20
75.042
 11
70.046
 21
74.9141
  0
LINE
  8
0
 10
70.046
 20
74.9141
 11
70.0896
 21
74.7798
  0
LINE
  8
0
 10
70.0896
 20
74.7798
 11
70.1161
 21
74.641
  0
LINE
  8
0
 10
70.1161
 20
74.641
 11
70.125
 21
74.5
  0
LINE
  8
0
 10
70.125
 20
74.5
 11
70.1161
 21
74.359
  0
LINE
  8
0
 10
70.1161
 20
74.359
 11
70.0896
 21
74.2202
  0
LINE
  8
0
 10
70.0896
 20
74.2202
 11
70.046
 21
74.0858
  0
LINE
  8
0
 10
70.046
 20
74.0858
 11
69.9858
 21
73.958
  0
LINE
  8
0
 10
69.9858
 20
73.958
 11
69.9101
 21
73.8387
  0
LINE
  8
0
 10
69.9101
 20
73.8387
 11
69.8201
 21
73.7299
  0
LINE
  8
0
 10
69.8201
 20
73.7299
 11
69.7171
 21
73.6332
  0
LINE
  8
0
 10
69.7171
 20
73.6332
 11
69.6028
 21
73.5501
  0
LINE
  8
0
 10
69.6028
 20
73.5501
 11
69.479
 21
73.4821
  0
LINE
  8
0
 10
69.479
 20
73.4821
 11
69.3476
 21
73.4301
  0
LINE
  8
0
 10
69.3476
 20
73.4301
 11
69.2108
 21
73.3949
  0
LINE
  8
0
 10
69.2108
 20
73.3949
 11
69.0706
 21
73.3772
  0
LINE
  8
0
 10
69.0706
 20
73.3772
 11
68.9294
 21
73.3772
  0
LINE
  8
0
 10
68.9294
 20
73.3772
 11
68.7892
 21
73.3949
  0
LINE
  8
0
 10
68.7892
 20
73.3949
 11
68.6523
 21
73.4301
  0
LINE
  8
0
 10
68.6523
 20
73.4301
 11
68.521
 21
73.4821
  0
LINE
  8
0
 10
68.521
 20
73.4821
 11
68.3972
 21
73.5501
  0
LINE
  8
0
 10
68.3972
 20
73.5501
 11
68.2829
 21
73.6332
  0
LINE
  8
0
 10
68.2829
 20
73.6332
 11
68.1799
 21
73.7299
  0
LINE
  8
0
 10
68.1799
 20
73.7299
 11
68.0898
 21
73.8387
  0
LINE
  8
0
 10
68.0898
 20
73.8387
 11
68.0141
 21
73.958
  0
LINE
  8
0
 10
68.0141
 20
73.958
 11
67.954
 21
74.0858
  0
LINE
  8
0
 10
67.954
 20
74.0858
 11
67.9103
 21
74.2202
  0
LINE
  8
0
 10
67.9103
 20
74.2202
 11
67.8839
 21
74.359
  0
LINE
  8
0
 10
67.8839
 20
74.359
 11
67.875
 21
74.5
  0
LINE
  8
0
 10
67.875
 20
84.5
 11
67.8839
 21
84.641
  0
LINE
  8
0
 10
67.8839
 20
84.641
 11
67.9103
 21
84.7798
  0
LINE
  8
0
 10
67.9103
 20
84.7798
 11
67.954
 21
84.9141
  0
LINE
  8
0
 10
67.954
 20
84.9141
 11
68.0141
 21
85.042
  0
LINE
  8
0
 10
68.0141
 20
85.042
 11
68.0898
 21
85.1613
  0
LINE
  8
0
 10
68.0898
 20
85.1613
 11
68.1799
 21
85.2701
  0
LINE
  8
0
 10
68.1799
 20
85.2701
 11
68.2829
 21
85.3668
  0
LINE
  8
0
 10
68.2829
 20
85.3668
 11
68.3972
 21
85.4499
  0
LINE
  8
0
 10
68.3972
 20
85.4499
 11
68.521
 21
85.5179
  0
LINE
  8
0
 10
68.521
 20
85.5179
 11
68.6523
 21
85.5699
  0
LINE
  8
0
 10
68.6523
 20
85.5699
 11
68.7892
 21
85.6051
  0
LINE
  8
0
 10
68.7892
 20
85.6051
 11
68.9294
 21
85.6228
  0
LINE
  8
0
 10
68.9294
 20
85.6228
 11
69.0706
 21
85.6228
  0
LINE
  8
0
 10
69.0706
 20
85.6228
 11
69.2108
 21
85.6051
  0
LINE
  8
0
 10
69.2108
 20
85.6051
 11
69.3476
 21
85.5699
  0
LINE
  8
0
 10
69.3476
 20
85.5699
 11
69.479
 21
85.5179
  0
LINE
  8
0
 10
69.479
 20
85.5179
 11
69.6028
 21
85.4499
  0
LINE
  8
0
 10
69.6028
 20
85.4499
 11
69.7171
 21
85.3668
  0
LINE
  8
0
 10
69.7171
 20
85.3668
 11
69.8201
 21
85.2701
  0
LINE
  8
0
 10
69.8201
 20
85.2701
 11
69.9101
 21
85.1613
  0
LINE
  8
0
 10
69.9101
 20
85.1613
 11
69.9858
 21
85.042
  0
LINE
  8
0
 10
69.9858
 20
85.042
 11
70.046
 21
84.9141
  0
LINE
  8
0
 10
70.046
 20
84.9141
 11
70.0896
 21
84.7798
  0
LINE
  8
0
 10
70.0896
 20
84.7798
 11
70.1161
 21
84.641
  0
LINE
  8
0
 10
70.1161
 20
84.641
 11
70.125
 21
84.5
  0
LINE
  8
0
 10
70.125
 20
84.5
 11
70.1161
 21
84.359
  0
LINE
  8
0
 10
70.1161
 20
84.359
 11
70.0896
 21
84.2202
  0
LINE
  8
0
 10
70.0896
 20
84.2202
 11
70.046
 21
84.0858
  0
LINE
  8
0
 10
70.046
 20
84.0858
 11
69.9858
 21
83.958
  0
LINE
  8
0
 10
69.9858
 20
83.958
 11
69.9101
 21
83.8387
  0
LINE
  8
0
 10
69.9101
 20
83.8387
 11
69.8201
 21
83.7299
  0
LINE
  8
0
 10
69.8201
 20
83.7299
 11
69.7171
 21
83.6332
  0
LINE
  8
0
 10
69.7171
 20
83.6332
 11
69.6028
 21
83.5501
  0
LINE
  8
0
 10
69.6028
 20
83.5501
 11
69.479
 21
83.4821
  0
LINE
  8
0
 10
69.479
 20
83.4821
 11
69.3476
 21
83.4301
  0
LINE
  8
0
 10
69.3476
 20
83.4301
 11
69.2108
 21
83.3949
  0
LINE
  8
0
 10
69.2108
 20
83.3949
 11
69.0706
 21
83.3772
  0
LINE
  8
0
 10
69.0706
 20
83.3772
 11
68.9294
 21
83.3772
  0
LINE
  8
0
 10
68.9294
 20
83.3772
 11
68.7892
 21
83.3949
  0
LINE
  8
0
 10
68.7892
 20
83.3949
 11
68.6523
 21
83.4301
  0
LINE
  8
0
 10
68.6523
 20
83.4301
 11
68.521
 21
83.4821
  0
LINE
  8
0
 10
68.521
 20
83.4821
 11
68.3972
 21
83.5501
  0
LINE
  8
0
 10
68.3972
 20
83.5501
 11
68.2829
 21
83.6332
  0
LINE
  8
0
 10
68.2829
 20
83.6332
 11
68.1799
 21
83.7299
  0
LINE
  8
0
 10
68.1799
 20
83.7299
 11
68.0898
 21
83.8387
  0
LINE
  8
0
 10
68.0898
 20
83.8387
 11
68.0141
 21
83.958
  0
LINE
  8
0
 10
68.0141
 20
83.958
 11
67.954
 21
84.0858
  0
LINE
  8
0
 10
67.954
 20
84.0858
 11
67.9103
 21
84.2202
  0
LINE
  8
0
 10
67.9103
 20
84.2202
 11
67.8839
 21
84.359
  0
LINE
  8
0
 10
67.8839
 20
84.359
 11
67.875
 21
84.5
  0
LINE
  8
0
 10
75.6549
 20
63.95
 11
75.6549
 21
68.8
  0
LINE
  8
0
 10
75.6549
 20
68.8
 11
85.7549
 21
68.8
  0
LINE
  8
0
 10
85.7549
 20
68.8
 11
85.7549
 21
63.95
  0
LINE
  8
0
 10
85.7549
 20
63.95
 11
75.6549
 21
63.95
  0
ENDSEC
  0
SECTION
  2
OBJECTS
  0
DICTIONARY
  0
ENDSEC
  0
EOF
